<svg xmlns="http://www.w3.org/2000/svg" width="54.97mm" height="55.28mm" viewBox="0 0 155.81 156.7">
  <title>Fichier 1</title>
  <g>
    <path d="M138.7,0H17.38A17.11,17.11,0,0,0,.27,17.11V43.94a1.43,1.43,0,0,0,.39.78l.11.18-.29-.31A191.76,191.76,0,0,0,16.37,75a191.66,191.66,0,0,0,31.81,37.74S84.29,146,124.49,155.53h0a5.25,5.25,0,0,0,1.31.13l12.89-.12a17.11,17.11,0,0,0,17.11-17.11V17.11A17.11,17.11,0,0,0,138.7,0ZM54.57,83.9a8.4,8.4,0,0,1-1.41,4.67L52.22,88,52,87.93l-1.71-1-.66-.39-1.21-.72-.75-.45-1.1-.67-.79-.49-1.06-.66-.8-.5-1-.67-.8-.51-1-.68-.78-.52-1-.69-.76-.52-1.07-.74-.71-.49-1.17-.82L35,77q-.87-.61-1.74-1.26l-.09-.06-1.65-1.22L30.9,74l-1.13-.86-.69-.52-1-.8-.59-.46A8.42,8.42,0,0,1,35.64,65h10.5a8.42,8.42,0,0,1,8.43,8.42Zm67.07,39.91a17.06,17.06,0,0,0-.45-3.62,17.8,17.8,0,0,0-2.46-5.7,15.25,15.25,0,0,0-7.65-4.41l-2.09-.44-1-.21c-2.6-.56-5-1.14-7.24-1.71a8.44,8.44,0,0,1,8.28-6.84h10.5a8.42,8.42,0,0,1,8.42,8.42v10.5a8.44,8.44,0,0,1-6.08,8.1C121.75,126.44,121.68,125.06,121.64,123.81ZM79.69,100.88h3.39a8.44,8.44,0,0,1,7,3.74C87.84,103.88,84.16,102.6,79.69,100.88Zm73.13,38.37a14.41,14.41,0,0,1-14.39,14.39l-13,.12h0l-1-.54-.6-4.87c-.18-1.54-1.22-10.08-1.82-17.7a11.16,11.16,0,0,0,8.6-10.85V108.87a10.72,10.72,0,0,0-10.71-10.71H109A11.17,11.17,0,0,0,98.1,107h0c-1.62-.44-3.11-.87-4.46-1.27a11.14,11.14,0,0,0-10.56-7.59H72.92l-2.16-.92c-4.91-2.12-10.16-4.59-15.22-7.35a11.15,11.15,0,0,0,1.75-6V73A10.71,10.71,0,0,0,46.58,62.26H35.64a11.15,11.15,0,0,0-10.45,7.29h0l-1.24-1L23,67.74l-.71-.6-1-.81-.69-.59-1-.86c-.22-.18-.43-.37-.64-.56l-1.08-1-.54-.47-1.59-1.45,0,0L14.23,60l-.52-.5-1-1-.61-.59L11.12,57l-.64-.64-.89-.88-1-1c-1.74-3.1-3.67-6.5-5.81-10.24l0,0V17.49a14,14,0,0,1,14-14H138.86a14,14,0,0,1,14,14Z" fill="#0f394c"/>
    <path d="M46.27,26.35H35.77A11.16,11.16,0,0,0,24.63,37.5V48A11.16,11.16,0,0,0,35.77,59.14h10.5A11.16,11.16,0,0,0,57.42,48V37.5A11.16,11.16,0,0,0,46.27,26.35ZM54.7,48a8.42,8.42,0,0,1-8.43,8.42H35.77A8.42,8.42,0,0,1,27.35,48V37.5a8.42,8.42,0,0,1,8.42-8.43h10.5A8.42,8.42,0,0,1,54.7,37.5Z" fill="#0f394c"/>
    <path d="M83.21,26.35H72.71A11.16,11.16,0,0,0,61.57,37.5V48A11.16,11.16,0,0,0,72.71,59.14h10.5A11.16,11.16,0,0,0,94.36,48V37.5A11.16,11.16,0,0,0,83.21,26.35ZM91.64,48a8.42,8.42,0,0,1-8.43,8.42H72.71A8.42,8.42,0,0,1,64.29,48V37.5a8.42,8.42,0,0,1,8.42-8.43h10.5a8.42,8.42,0,0,1,8.43,8.43Z" fill="#0f394c"/>
    <path d="M119.51,62.26H109A11.16,11.16,0,0,0,97.86,73.4V83.9A11.16,11.16,0,0,0,109,95h10.5A11.16,11.16,0,0,0,130.65,83.9V73.4A11.16,11.16,0,0,0,119.51,62.26Zm8.42,21.64a8.42,8.42,0,0,1-8.42,8.42H109a8.42,8.42,0,0,1-8.43-8.42V73.4A8.42,8.42,0,0,1,109,65h10.5a8.42,8.42,0,0,1,8.42,8.42Z" fill="#0f394c"/>
    <path d="M83.08,62.26H72.59A11.16,11.16,0,0,0,61.44,73.4V83.9A11.16,11.16,0,0,0,72.59,95H83.08A11.16,11.16,0,0,0,94.23,83.9V73.4A11.16,11.16,0,0,0,83.08,62.26ZM91.51,83.9a8.42,8.42,0,0,1-8.43,8.42H72.59a8.42,8.42,0,0,1-8.43-8.42V73.4A8.42,8.42,0,0,1,72.59,65H83.08a8.42,8.42,0,0,1,8.43,8.42Z" fill="#0f394c"/>
    <path d="M119.64,26.35h-10.5A11.16,11.16,0,0,0,98,37.5V48a11.16,11.16,0,0,0,11.15,11.14h10.5A11.16,11.16,0,0,0,130.78,48V37.5A11.16,11.16,0,0,0,119.64,26.35ZM128.06,48a8.42,8.42,0,0,1-8.42,8.42h-10.5A8.42,8.42,0,0,1,100.71,48V37.5a8.42,8.42,0,0,1,8.43-8.43h10.5a8.42,8.42,0,0,1,8.42,8.43Z" fill="#0f394c"/>
    <path d="M23.2,88.05A214.11,214.11,0,0,1,4,54.39c-1.73-3.82-3.07-7.1-4-9.5a162.56,162.56,0,0,0,5.45,35A163.28,163.28,0,0,0,25.3,124.85h0c1.92,2.93,13.28,17.55,14.51,18.92,3.47,3.85,12.43,12.83,21.13,12.83,17,0,46.08.2,48,0A181,181,0,0,1,58.2,126.93,188.42,188.42,0,0,1,23.2,88.05Z" fill="#0f394c"/>
  </g>
</svg>
