<svg id="Calque_1" data-name="Calque 1" xmlns="http://www.w3.org/2000/svg" viewBox="0 0 1920.21 1080.19"><defs><style>.cls-1{fill:#fd9649;}.cls-2{fill:#458046;}.cls-3{fill:#366a37;}.cls-4{fill:#376a37;}.cls-5{fill:#478147;}.cls-6{fill:#fc9649;}.cls-7{fill:#467f46;}.cls-8{fill:#fe9749;}.cls-9{fill:#5a8d5b;}.cls-10{fill:#335233;}.cls-11{fill:#416340;}.cls-12{fill:#447043;}.cls-13{fill:#fefefe;}.cls-14{fill:#859e85;}</style></defs><title>illu accueil</title><path class="cls-1" d="M361,1H1619c-1.73,2.23-3.42,4.5-5.2,6.69-25.82,31.54-39.14,67.84-38.31,108.43.76,36.89,14.73,69.75,35.84,99.66a194.69,194.69,0,0,0,13,16.47c5.41,6.12,11.85,4.7,14.39-3.09a69.54,69.54,0,0,0,2.22-11.25c1.3-8.73,2-17.56,4.26-26.12.54-2,.88-4.22,4.19-3.56,3.06.62,3.51,2.18,3.4,4.89-.49,13.15-.5,26.33-2.41,39.39a23.57,23.57,0,0,0,5.42,19.55c16.69,19.9,37.28,34.6,60.64,45.57,6.77,3.18,12,.92,15-6,2.17-4.94,2.93-10.23,3.41-15.56.72-8.13,1.32-16.27,2.05-24.4.14-1.51-.36-3.49,2.21-3.75,4.5-.45,8,2.47,8,7,0,11.69-1.51,23.28-2.62,34.88-1.82,19.12.6,23.85,17.64,32.41l1.79.88c16.59,8.59,34.78,12.38,52.52,17.5,11.66,3.36,17.28-.31,19.18-12.32a64.17,64.17,0,0,0,.65-7.46q.76-19.73,1.43-39.46c.2-5.52.9-5.91,6.13-3.85a4.49,4.49,0,0,1,3.22,4c.38,3.64.87,7.28,1,10.93.54,12.19-.63,24.29-1.89,36.4-.78,7.55,1.7,11.13,8.8,13.62a29.05,29.05,0,0,0,5.3,1.43c20.11,3,40.25,5.79,60.67,5.07v84c-12.69-8.65-22.2-20.56-32.5-31.65-8.72-9.39-16.8-19.43-27.57-26.7s-22.18-12.27-35.62-9.83c-15.7,2.84-22.58,16.63-15.5,30.92,3.27,6.59,8.28,11.6,14,16,7.24,5.61,15.1,10.45,21.59,17,2.65,2.66,7.42,5.75,4.32,9.89-2.93,3.91-7.42.86-10.85-1a121.36,121.36,0,0,1-32.41-25.58c-7-7.61-13.57-15.59-21.75-22s-17.4-9.79-27.9-8.48c-9.75,1.2-15.22,6.66-16.73,16.41a31.33,31.33,0,0,0,.57,12.89c2.93,11.09,9.68,19.63,18.13,26.95,11.92,10.33,26.14,17.18,39.36,25.54,2.82,1.79,5.63,3.6,7.75,6.24a3.16,3.16,0,0,1,.88,2.16c-.3,1.24-1.57,1-2.52.87-5.84-.73-11.32-2.75-16.73-4.95-9.1-3.71-18-7.93-27.43-10.8-12.25-3.74-24.45-8-37.59-7-17.75,1.29-29.07,10.32-31.08,25-1.16,8.46,1.2,16.13,5.5,23.37.9,1.51,3.17,2.93,1.32,5.24a27.17,27.17,0,0,0-18.82,11.16c-11.2,14.87-11.1,30.84-3.32,47.1,2.07,4.34,5.07,8.22,7.43,12.43,2.56,4.56,4.41,9.36,3.47,14.78-1.22,7-5.6,10.07-12.52,8.65a35.69,35.69,0,0,1-13.51-6.26c-6.1-4.35-11.9-9.16-18.19-13.2-12.79-8.22-26.65-10.26-40.36-3.19-12.89,6.66-17.93,18.81-18.3,32.81s7.15,23.38,20.93,26.43c5.2,1.15,10.5,1.84,15.71,3,3.16.7,6.59,2.08,6.87,5.63s-3.45,4-5.9,5.19c-1.5.73-3.1,1.22-4.6,1.94a46.38,46.38,0,0,0-22,21.69,29,29,0,0,0,20.78,41.58c15.69,2.82,27.61-3.85,36.69-16.16a77.08,77.08,0,0,0,10.53-19.79c1.3-3.62,2.86-7.15,5.89-9.72,1.25-1.06,2.7-2.6,4.34-1.34,1.48,1.13.33,2.83-.3,4.1-2.31,4.62-4.67,9.21-7.15,13.74a35,35,0,0,0-3.85,20.8c1.93,19.23,16.36,33,33.29,31.66a42.82,42.82,0,0,0,37.52-30.57c2.74-9.33,2.3-18.76,1.7-28.26-.47-7.31-.74-14.63-1-22,0-1.21,0-3,1.58-3.33s2.13,1.4,2.6,2.54c1.07,2.62,2,5.31,2.86,8A34.93,34.93,0,0,0,1756.9,683c9.19,5.34,17.44,4.3,24.84-3.35,12.93-13.39,13.39-32.64,1.16-49.32-1.48-2-3.05-4-4.45-6a2.8,2.8,0,0,1-.19-3.3c.89-1.19,2.17-.59,3.2-.14,3.2,1.41,6.31,3,9.53,4.38,15.11,6.34,27.65-3,25.65-19.37a54.58,54.58,0,0,1,.29-13.88c1.37-10.52,10.71-16.38,20.82-13.1a28,28,0,0,1,12.29,8.27c5.37,6,9.52,12.82,13.64,19.68,14.14,23.57,28.36,47.1,46,68.36,3.8,4.59,7,9.71,11.37,13.8v93c-1-3.15-2.24-6.26-3.08-9.46-5.91-22.34-14.39-43.29-31.54-59.72-5.28-5.06-9.86-4.85-14.1,1.08q-11.9,16.65-23.75,33.36c-.93,1.3-1.49,3.08-3.53,3.18a106.15,106.15,0,0,0-35-37.58c-9.71-6.36-10-6.27-16.48,2.79-7.83,10.86-12.25,23.14-15.85,35.84-.62-.07-1.49.11-1.84-.24-7.65-7.7-17-13.28-25.2-20.28-6.21-5.28-9.8-4.58-12.9,3.21-5,12.64-10.34,25.19-14.56,38.14-.46,1.4-.65,3-2.14,3.78a108.56,108.56,0,0,0-31.26-23.75,68.44,68.44,0,0,0-20.27-6.88c-6.76-1.12-9.34.47-12.09,6.68a137,137,0,0,0-11.49,45.8c-1.52-.63-3.09-1.17-4.57-1.89a153.35,153.35,0,0,0-42.7-13.41c-6.11-1-9.85,2.75-9.26,8.93.45,4.8.73,9.61,1,14.43.86,18.08.22,36.28,4.66,54.06-6.56-1.56-12.89-3.85-19.81-4.07-12.64-.41-24.8,1.87-37,4.93-6.85,1.73-7.91,2.49-8.36,9.49-.64,10,1.82,19.44,5.82,28.56,1.59,3.62,4,6.91,4.45,11-10.8-.37-21.13,2.53-31.61,4.42-13.29,2.4-13.85,3.78-7.86,16,3.64,7.43,8,14.55,10.38,22.58a135.41,135.41,0,0,0-31.13,7,65.15,65.15,0,0,0-15,6.88c-6.23,4.17-6.94,7.31-3.77,13.82,6.92,14.24,17.11,25.71,29.57,35.3-.77,1.44-2.25,1.9-3.56,2.59a99.56,99.56,0,0,0-20.73,14.54c-4.63,4.21-5.09,8.81-1,13.52a69.66,69.66,0,0,0,10.75,9.6c10.68,8.17,21.21,16.52,31.8,24.8H1357c-1.52-11.87-3.14-23.74-4.54-35.63-2.74-23.44-3.09-46.94,1.27-70.19C1359,947,1372,922.05,1388.54,899c15-20.87,29.32-42.11,42.61-64.08C1445.56,811,1453,785,1456,757.49c1.56-14.33.5-28.61-.08-42.92,14.26-37.35,23-76,28.12-115.6,2-15.71,2.64-31.51,4-47.26,1.94-.86,2.15-2.88,2.87-4.48A291.17,291.17,0,0,0,1510,486.86a188.57,188.57,0,0,1,11.86-36c4.12-9.56,10.52-17.28,21.41-20.16,6.38-1.69,11.08.14,14.78,5.32,8.8,12.32,10.66,25.74,5.45,39.83-3.93,10.63-8.94,20.78-16.17,29.72-4.51,5.56-8.63,11.43-12.88,17.19a59.59,59.59,0,0,0-11.9,33.4c-.28,6.15.71,12.07,4.47,17.36,1.46-1.08.91-2.14.83-3-1.83-20.82,5-37.81,21.52-51a202.47,202.47,0,0,0,19.37-18c9.12-9.53,16.3-20.57,18.18-33.79,2.27-16-2.24-30.67-11.6-43.84-1-1.43-2.8-2.54-2.28-4.73,15.91-5.46,25.56-22.67,26.26-40.42-4.52,6.85-11.07,9.09-17.21,12a41.34,41.34,0,0,0-9.27,5.85c-5.4,4.59-8.62,10.12-7.29,17.53-22.12-11.61-39.06-1.76-54.93,13.63-.61-2.23-1.14-4.11-1.63-6-5.6-21.65-15.78-40.57-33.17-55.11-7.27-6.08-14.68-12-22-18L1453,348l.11,0c.4-1.94-.63-3.57-1.29-5.23A514.42,514.42,0,0,0,1419,274.61c-12.25-21.15-25.45-41.66-40.91-60.64,1.55-21.12,6.64-40.73,23.32-55.52,11.56-10.25,23.15-11,35.88-2.28,6.67,4.59,11.61,10.9,17.11,16.7,11.73,12.38,14.76,26.46,11.1,42.9-2.7,12.11-9.37,19.91-20.94,23.86-3.41,1.16-6.78,2.43-10.35,3.71,1.56,2.37,3.64,2.5,5.57,2.6,11.36.61,21.22-2.68,29.63-10.65,12.3-11.66,14.32-26.6,13.92-42.24-.26-10.6-5.15-19.87-9.78-29.13,7.45-.91,13.51-3.49,14.7-12.07a19.44,19.44,0,0,1,1.19-3.8c8.31-22.63,4.47-44.7-3-66.61-1.88-8.49-5.14-16.47-8.3-25.19a16.48,16.48,0,0,0-1.69,2.08,13,13,0,0,0-1.12,2.77c-4,18.56-13.7,34.14-25.55,48.6a43.24,43.24,0,0,0-9.41,19.63c-.61,3.35-1.78,3.52-4.62,2.48-17.18-6.27-32.41-2-46.15,9.1A77.09,77.09,0,0,0,1363,181.08c-.94,3.36-2.11,6.65-3.17,10-10.58-11.46-21-23.07-32.35-33.79-14.37-13.55-29-26.79-45.06-38.38-5.22-9.57-7.91-20.09-11.32-30.32A64.73,64.73,0,0,0,1255,63.13c-23.34-23.49-66.68-34.27-100.72-16.73-.64-.2-1.28-.38-1.9-.62A524.33,524.33,0,0,0,877.91,18.14,503.83,503.83,0,0,0,768.64,49a66.25,66.25,0,0,0-15.22-4.66c-25.32-4.58-48.72-1.54-67.59,18.08a79.58,79.58,0,0,0-14.77,22.37c-3.53,7.68-6.71,15.53-10,23.3a435.9,435.9,0,0,0-44.92,35.82c-6.94-4.78-12.18-11.24-17-18a29.24,29.24,0,0,1-5.3-16.37c-.29-8.64.61-17.32-.67-25.94a17.52,17.52,0,0,0-10.6-14.09c-1.31-.61-2.58-.86-3.57.47-.75,1-.2,1.87.48,2.67,7.19,8.44,7.53,18.18,5.15,28.31-2,8.53-.87,16.8,1.5,25,1.29,4.48-.27,7-5,7.63a52.55,52.55,0,0,1-22.68-2.15c-7.32-2.33-14.17-5.81-21.31-8.54s-11.89.31-12.88,8.06A34.12,34.12,0,0,0,527.4,148c9.29,20,23.88,33.76,46,38.5-7.14,8.58-14.6,16.91-21.36,25.77Q416,390.41,447,612.5c9.27,66.57,31.9,128.68,65.83,186.7,14.32,24.5,30.85,47.44,48.55,69.57l-18.26-3.32c-3.66-.92-7.18-2.65-11.13-1.8C513,860,494.12,856.46,475,854c-3.21-1.45-6.66-1.32-10.06-1.52-11.25-1.85-22.66-2.71-33.75-5.53l-7.4-3.83c1.6-2.19,3.75-2.8,5.61-3.79A119.92,119.92,0,0,0,444.77,830c4.32-3.19,7.15-7.16,5.79-12.78-1.42-5.85-5.91-8.09-11.44-8.82-.49-.06-1-.16-1.48-.17-9.49-.16-19-.53-28.46-.4-8.72.12-8.81.31-4.66-7.64,4.73-9.06,8.5-18.43,10-28.6.82-5.6-.07-10.78-5-14.29-5.11-3.67-10.46-2.81-15.48.29-6.94,4.28-13.73,8.8-20.6,13.21-3.72,2.39-7.47,4.75-11.48,7.3V759.19c0-6.49.27-13-.11-19.46-.35-5.93-4-10.14-9-11.35-4.74-1.16-9.48.84-12.84,5.68-2.09,3-3.93,6.18-5.85,9.3-3.37,5.45-6.71,10.92-10.56,17.18-.88-2.71-1.47-4.24-1.87-5.83-2.33-9.19-4.49-18.42-7-27.58-1.57-5.87-5-10.23-11.51-10.93-5.3-.58-9.95,2.71-12.86,9.25-2.1,4.7-3.77,9.59-5.62,14.4a30.57,30.57,0,0,1-1.88-3.46c-8.75-21.94-17.9-43.7-29-64.57,2,.25,4,.4,5.93.76,14.49,2.69,29,4.64,43.35-.58,13.63-5,24.22-13.2,27.36-28.38,3.77-18.19-5.66-44.23-31.41-48.07A302.13,302.13,0,0,0,236,592.87c-2.94-11.73-6-23.44-10-34.86,12.76-3.7,25.58-7.25,38.29-11.14,13.06-4,24.9-10.23,34.48-20.2,10.64-11.06,12-21.11,4-34.3-10.83-17.94-27.91-25.87-47.92-27.06-17.54-1-33.56,5.67-49.14,13.1-2.23,1.07-4.25,2.67-6.85,2.86-1.89-7.31-6.32-13.71-7.77-21.19,11.31-3.6,21.68-9.26,32.17-14.68,32.85-16.94,34-52.13,19.15-76-7-11.28-17.27-16.75-30.63-15.95-3.32.2-6.64.6-9.92,1.13-23.49,3.79-42.47,16.62-60.92,30.52a3.72,3.72,0,0,1-2.51-1.45q-8.69-10.25-17.4-20.46A3.56,3.56,0,0,1,120,360c12.19-11.17,23.16-23.36,30.72-38.2,4.74-9.32,7.74-19.12,5.39-29.79,1.63-.27,3.25-.66,4.89-.79,10.23-.82,18.74,4,27.13,8.75,11.74,6.69,22.6,14.74,33.65,22.47,10.42,7.29,21.42,13.65,33.89,16.69a101.61,101.61,0,0,0,69.68-7.26c18.23-8.75,36.22-9.94,55.2-3.68,17.33,5.7,35.08,5.72,52.88,2.59,11.27-2,21.27-6.63,29-15.39,15.08-17,23.08-37,23.21-59.68.12-21-7.58-39.6-21.12-55.35-14.29-16.62-18.7-35.55-16.32-56.74,2.54-22.78-5.81-41.74-20.88-58.23-8.89-9.72-20-16.57-31-23.42-13.66-8.48-22.15-20.46-25.45-36.08A73.8,73.8,0,0,0,361,1Z" transform="translate(-0.89 -0.9)"/><path class="cls-2" d="M361,1a73.8,73.8,0,0,1,9.89,24.92c3.3,15.62,11.79,27.6,25.45,36.08,11,6.85,22.13,13.7,31,23.42,15.07,16.49,23.42,35.45,20.88,58.23-2.38,21.19,2,40.12,16.32,56.74,13.54,15.75,21.24,34.38,21.12,55.35-.13,22.66-8.13,42.64-23.21,59.68-7.74,8.76-17.74,13.4-29,15.39-17.8,3.13-35.55,3.11-52.88-2.59-19-6.26-37-5.07-55.2,3.68a101.61,101.61,0,0,1-69.68,7.26c-12.47-3-23.47-9.4-33.89-16.69-11.05-7.73-21.91-15.78-33.65-22.47-8.39-4.79-16.9-9.57-27.13-8.75-1.64.13-3.26.52-4.89.79-5.19-.5-10.32.48-15.33,1.37-15,2.67-29.3.8-43.41-4.58-5-1.91-9.29-5.13-14.33-6.85-3.95-5.43-9.58-9.33-13.34-15-2-3.09-3.52-6.71-6.7-9-7.23-15.14-13.34-30.74-19.26-46.43a19.19,19.19,0,0,0-5.73-8c-1.23-4.36-4.81-6.75-8.21-9C20.9,188.65,10.8,185.13,1,181Q1,93.19.89,5.39C.88,1.43,2,.85,5.59.91,18.39,1.14,31.2,1,44,1c1.13,3.43,3.57,6,6,8.44a129.26,129.26,0,0,0,59.67,34.75c12.83,3.48,25.16,7.94,33,19.91a84.42,84.42,0,0,1,8.05,16.59q10.41,27.57,38.51,36.19A138.82,138.82,0,0,0,219,122.94c23.77,1.9,42,11.73,53.54,33.54,11.05,20.84,28.75,33.57,52,38.69,9.17,2,17.46,6.36,25.44,11.34,8.64,5.39,15,13,21.63,20.52,1.94,2.21,4.12,4.21,7.21,1.64,2.84-2.35,2.92-5.29.92-8-3.15-4.28-6.24-8.73-10.08-12.34-12.86-12.09-28.08-20-45.15-24.52-8.35-2.22-16.47-5-23.64-10.34-9.94-7.39-16.24-17.55-22.4-27.8-8.49-14.14-19.95-24.26-36-29.08-9.94-3-20.24-3.78-30.37-5.59s-20.45-3.34-29.64-8.42c-12-6.64-18.84-17.29-23.48-29.93-6.77-18.48-19.39-31.06-38.72-36.47-13.81-3.86-27.41-8.34-39.72-15.95C72,15,64.18,9,58,1ZM281,194.06c.13,2.91,1.46,4.83,4.53,4.79s4.41-2,4.39-4.91-1.44-4.82-4.5-4.79S281.11,191.16,281,194.06Z" transform="translate(-0.89 -0.9)"/><path class="cls-3" d="M1921,349c-20.42.72-40.56-2.06-60.67-5.07a29.05,29.05,0,0,1-5.3-1.43c-7.1-2.49-9.58-6.07-8.8-13.62,1.26-12.11,2.43-24.21,1.89-36.4-.16-3.65-.65-7.29-1-10.93a4.49,4.49,0,0,0-3.22-4c-5.23-2.06-5.93-1.67-6.13,3.85q-.69,19.73-1.43,39.46a64.17,64.17,0,0,1-.65,7.46c-1.9,12-7.52,15.68-19.18,12.32-17.74-5.12-35.93-8.91-52.52-17.5l-1.79-.88c-17-8.56-19.46-13.29-17.64-32.41,1.11-11.6,2.58-23.19,2.62-34.88,0-4.55-3.52-7.47-8-7-2.57.26-2.07,2.24-2.21,3.75-.73,8.13-1.33,16.27-2.05,24.4-.48,5.33-1.24,10.62-3.41,15.56-3,6.89-8.25,9.15-15,6-23.36-11-44-25.67-60.64-45.57a23.57,23.57,0,0,1-5.42-19.55c1.91-13.06,1.92-26.24,2.41-39.39.11-2.71-.34-4.27-3.4-4.89-3.31-.66-3.65,1.51-4.19,3.56-2.28,8.56-3,17.39-4.26,26.12a69.54,69.54,0,0,1-2.22,11.25c-2.54,7.79-9,9.21-14.39,3.09a194.69,194.69,0,0,1-13-16.47c-21.11-29.91-35.08-62.77-35.84-99.66-.83-40.59,12.49-76.89,38.31-108.43,1.78-2.19,3.47-4.46,5.2-6.69q149,0,298-.1c3.42,0,4.1.68,4.1,4.1Q1920.92,177,1921,349Z" transform="translate(-0.89 -0.9)"/><path class="cls-2" d="M253.93,671.82c11.14,20.87,20.29,42.63,29,64.57a30.57,30.57,0,0,0,1.88,3.46L301,788a139.88,139.88,0,0,0,5.88,24,25,25,0,0,0,1.16,8,184.41,184.41,0,0,1,5,48c-.06,5.66.17,11.35-.25,17-1.75,23.73-7.86,46.51-15.33,69-13.45,40.5-32.36,78-59.72,111.08-4.19,5.07-9.06,9.75-11.78,16q-110.5,0-221,.1c-3.42,0-4.1-.68-4.1-4.1Q1.1,976,1,875c1.35-2.09,2.75-4.14,4-6.27C13.84,854,23.09,839.6,34.1,826.39c14.72-17.68,31.12-33.77,47.3-50C113.26,744.27,138,708,149.58,663.67c2.55-9.79,6.36-19.23,8-29.28,1.37-1.17,1.48-2.92,2-4.48,3.23-9.77,4.94-20,8.87-29.55,5.79-14,18.82-17.33,31.24-8.52,4.25,3,6.42,8,11.27,10.23,1.82,4.95,6,8.25,8.82,12.48,5,7.54,10.16,15,15.25,22.51a24.34,24.34,0,0,0,1.23,3.22Q245,656.08,253.93,671.82Zm-55.31,37.85c-.75-4-.21-11.33-.76-18.61-.77-10.25-1.36-20.59-4.23-30.57-.95-3.33-2.32-6.7-6.52-6.3s-4.65,3.93-5.15,7.4c-2,14.06-.45,28.24-1.76,42.35-1.25,13.58-2.59,27.13-4.64,40.59-3.88,25.36-9.89,50.28-16.47,75.06a381.33,381.33,0,0,1-23.21,62.71c-9.42,20.24-21.47,39.08-34.56,57.23-17,23.62-33.16,47.88-50.41,71.36-7.26,9.89-15.55,19.15-20.95,30.32-3.29,6.81-1.2,15.37,4.33,19.3,5.8,4.13,12.11,3.22,18.4-2.72a186.68,186.68,0,0,0,16.67-18.54,721.27,721.27,0,0,0,46.69-65.38c10-15.57,19.14-31.63,27.84-47.93,6.82-12.77,13.88-25.5,18.66-39.23a777.2,777.2,0,0,0,26-92.76C194.29,767.23,198.5,740.35,198.62,709.67Z" transform="translate(-0.89 -0.9)"/><path class="cls-3" d="M226,1081c2.72-6.2,7.59-10.88,11.78-16,27.36-33,46.27-70.58,59.72-111.08,7.47-22.47,13.58-45.25,15.33-69,.42-5.63.19-11.32.25-17,1.87,0,3.41-1,5.12-1.49,4.39-1.19,7.92-4.79,12.8-4.53.62,17.84,5.84,34.69,11.06,51.54a5.48,5.48,0,0,0,.92,1.76c1.4,1.79,3,3.12,5.55,2.3a4.63,4.63,0,0,0,3.48-4.85c.05-4.09-1.36-7.84-2.48-11.67-4.21-14.39-8-28.86-7.54-44.07l21-7c4.47-.46,8.91-1,13-3,7.36.22,14.62-1.66,22-1l2,0a25,25,0,0,1-.43,4.45c-4.53,16.33-2.89,32.6.19,48.89.73,3.87,2.15,7.15,6.57,6.34,4.14-.75,4.41-4.32,3.84-7.92C407.44,880.43,406,863.11,412,846c6.46-.59,12.78,1.66,19.24.91,11.09,2.82,22.5,3.68,33.75,5.53-1.19,6.7-2.87,13.35-3.49,20.1-1.16,12.61-.94,25.22,2.13,37.63.84,3.39,2.83,5.27,6.47,4.66s4-3.44,3.92-6.45a17.09,17.09,0,0,0-.25-2.47c-1.34-6.7-1.5-13.49-1.86-20.29-.56-10.77,2.43-21.08,3.14-31.66,19.11,2.46,38,6,56.93,9.65-.54,9.09-2.71,18.08-1.92,27.26.54,6.27,1.12,12.54,2,18.77.42,3,2.24,5.4,5.7,5.05s4.5-2.9,4.32-6.14c-.12-2.15.23-4.36-.1-6.48-1.87-12.3-1.07-24.5,1.15-36.66l18.26,3.32c12,2.75,24,5.53,36,8.23,13.36,3,27.11,2.89,40.6,4.77,17.56,2.45,26.76,16.37,22.71,33.6-1.46,6.21-4.15,11.92-7.08,17.53L645,949.21c-1,1.51-2,3-2.93,4.54q-9,15.63-17.92,31.3a123.55,123.55,0,0,1-38.75-15.17c-3.07-1.82-6-3.15-8.81.35-3.06,3.89.14,6,2.5,8.26a10.14,10.14,0,0,0,2.43,1.71c10.19,5.23,20.33,10.57,31.57,13.33,1.76.43,3.68.7,4.18,3-9.26,17.12-20.13,33.06-34.4,46.47a18.58,18.58,0,0,1-3.37-.78,146.31,146.31,0,0,1-42.71-28c-2.91-2.78-6.13-5.08-9.4-1.6s-.77,6.67,2.11,9.39c10.81,10.21,22.56,19,36.13,25.37,2.65,1.23,5.71,2,7.47,4.73-1.29,1.27-2.53,2.61-3.88,3.8A274.52,274.52,0,0,1,536,1081H511a12.25,12.25,0,0,0-1.55-1.93c-11.79-9.73-23.32-19.68-31.24-33.09-1.83-3.1-5.07-4.15-8.17-2.06s-2.32,5-.78,8c4.83,9.12,12.19,16.09,19.35,23.26,1.72,1.72,4,3.1,4.39,5.85Z" transform="translate(-0.89 -0.9)"/><path class="cls-4" d="M1921,689c-4.41-4.09-7.57-9.21-11.37-13.8-17.59-21.26-31.81-44.79-46-68.36-4.12-6.86-8.27-13.69-13.64-19.68a28,28,0,0,0-12.29-8.27c-10.11-3.28-19.45,2.58-20.82,13.1a54.58,54.58,0,0,0-.29,13.88c2,16.36-10.54,25.71-25.65,19.37-3.22-1.35-6.33-3-9.53-4.38-1-.45-2.31-1.05-3.2.14a2.8,2.8,0,0,0,.19,3.3c1.4,2.06,3,4,4.45,6,12.23,16.68,11.77,35.93-1.16,49.32-7.4,7.65-15.65,8.69-24.84,3.35a34.93,34.93,0,0,1-16.25-20.1c-.87-2.69-1.79-5.38-2.86-8-.47-1.14-1-2.85-2.6-2.54s-1.62,2.12-1.58,3.33c.21,7.32.48,14.64,1,22,.6,9.5,1,18.93-1.7,28.26a42.82,42.82,0,0,1-37.52,30.57c-16.93,1.31-31.36-12.43-33.29-31.66a35,35,0,0,1,3.85-20.8c2.48-4.53,4.84-9.12,7.15-13.74.63-1.27,1.78-3,.3-4.1-1.64-1.26-3.09.28-4.34,1.34-3,2.57-4.59,6.1-5.89,9.72A77.08,77.08,0,0,1,1652.59,697c-9.08,12.31-21,19-36.69,16.16a29,29,0,0,1-20.78-41.58,46.38,46.38,0,0,1,22-21.69c1.5-.72,3.1-1.21,4.6-1.94,2.45-1.21,6.18-1.76,5.9-5.19s-3.71-4.93-6.87-5.63c-5.21-1.14-10.51-1.83-15.71-3-13.78-3-21.3-12.31-20.93-26.43s5.41-26.15,18.3-32.81c13.71-7.07,27.57-5,40.36,3.19,6.29,4,12.09,8.85,18.19,13.2a35.69,35.69,0,0,0,13.51,6.26c6.92,1.42,11.3-1.66,12.52-8.65.94-5.42-.91-10.22-3.47-14.78-2.36-4.21-5.36-8.09-7.43-12.43-7.78-16.26-7.88-32.23,3.32-47.1a27.17,27.17,0,0,1,18.82-11.16c2.7.76,4.57,2.69,6.33,4.67,12.29,13.83,28.48,18,46.09,18.84,3,5.53,7.74,9.49,12.45,13.37,7.18,5.91,15.17,10.14,24.77,10.44,0,1.33,0,2.67.13,4,1,14.18,13.54,25.65,27.15,24.08,9.39-1.08,17.14-6,23.74-12.69,3.48-3.56,5.25-8.53,9.49-11.45,10.38,5.13,18.3,13.15,25.11,22.23,14.76,19.68,27.17,40.9,39.72,62,2.43,4.1,4.42,8.52,7.76,12Zm-218-68c3.12.2,5.25-1.87,7.63-3.35,17.88-11.17,33.52-25.82,53.18-34.25a7.28,7.28,0,0,0,1.91-1.58c1.67-1.57,3-3.33,1.57-5.68-1.29-2.14-3.21-3.58-5.82-2.89a44.2,44.2,0,0,0-7,2.6c-14.06,6.41-25.63,16.66-38.47,25-5.43,3.51-10.53,7.56-15.69,11.48-2,1.53-2.9,3.68-1.8,6.19C1699.34,620.34,1701,621,1703,621Z" transform="translate(-0.89 -0.9)"/><path class="cls-2" d="M1511,953c-2.36-8-6.74-15.15-10.38-22.58-6-12.22-5.43-13.6,7.86-16,10.48-1.89,20.81-4.79,31.61-4.42,14.91-.43,29.51,1.9,43.88,5.58,11.11,2.83,22.07,6.25,33.1,9.41,4.21,1.94,8.42,3.83,12.73,5.58,11.58,4.71,23.57,8.19,35.3,12.45,19.95,7.25,38.08,18.09,56.47,28.42a179.08,179.08,0,0,1,25.21,16.93c13.14,10.69,26.54,21,39.46,32,16.13,13.7,32.13,27.45,44.35,44.91,3.59,5.12,8.35,9.53,10.37,15.7H1654a24.87,24.87,0,0,0-3.8-2.31c-11.82-4.56-23-10.43-34.22-16.25-26.69-13.87-48.37-33.68-66.8-57.22-1.42-1.81-2.75-3.3-5.2-3.24-10.21-13.28-20-26.87-28.12-41.56C1514.44,957.87,1513.71,954.78,1511,953Z" transform="translate(-0.89 -0.9)"/><path class="cls-5" d="M1455.94,714.57c.58,14.31,1.64,28.59.08,42.92-3,27.53-10.46,53.54-24.87,77.38-13.29,22-27.66,43.21-42.61,64.08-16.55,23.1-29.51,48-34.81,76.23-4.36,23.25-4,46.75-1.27,70.19,1.4,11.89,3,23.76,4.54,35.63h-31a6.69,6.69,0,0,0-1.77-4.56c-5.7-7.25-11-14.9-17.45-21.46-11-11.28-22.23-22.39-37.84-27.72-29.28-10-59.77-12.38-90.21-15.25-6.77-.62-13.53-1.26-20.29-1.84-.8-.07-1.92-.19-2.38.25-4.83,4.57-10.22,8.73-12.18,15.55l.16-.09c-1.22-.87-.94.52-1.34.89-3.52,5.35-6.12,11.25-6.23,17.57-.24,15.35-6.24,27.5-18.47,36.66h-72c-1.85-1.72-1.65-2.65,1-2.84a70.86,70.86,0,0,0,17-3.83c8.54-2.77,17.12-5.16,26.24-5.45,6.47-.21,12.25-3,17.39-6.9,3.55-2.69,6.46-6.28,6.56-10.76.12-5.21,1.3-10.21,1.82-15.32,3-8.79,5.91-17.69,11.67-25.18,2.4-3.12,1.43-3.89-2-4.47-22.69-3.85-45-9-65.31-20.4-1.73-1-2.93-1-4.2.77a65.06,65.06,0,0,1-22.92,19.56c-1.16.6-2.63,1.17-1.47,2.94,3.61,5.56,2.57,11.84,2.84,17.92-6.57-1.89-10.25-7.46-14.88-11.79-4.95-4.62-7.34-4.56-11.69.72-6.63.71-11.77,4.47-16.36,8.76-6.17,5.78-10.19,12.68-8.54,21.72.71,3.85-.31,7.59-1.32,11.29-.88,1.19-1.7,2.44-2.67,3.56-6.39,7.43-14.09,11.43-24.15,9-3.54-.86-6.4-2.71-8-6.13-1.16-2.5-1.42-4,2.42-3.35,5.11.84,10.24.49,14.77-2.62,7.26-4.41,8.59-11.9,8.69-19.21a78.55,78.55,0,0,1,3-20.42c2.59-9.29,7.44-16.64,17.13-20.11,4-1.44,8-3,12.16-4.19,12-3.46,23.31-8.12,32-17.68,2.44-2.68,2.93-4.42-.07-7.13-5.19-4.68-9.81-10-14.92-14.74-10.57-9.86-19.49-21.79-33.54-27.36-22.59-9-42.59-6.34-58.12,12.65-10.75,13.15-19.57,27.64-28.72,41.9-8.44,13.15-15.56,27.27-27.87,37.57-9.75,8.17-20.7,14.18-33.57,13.3a70,70,0,0,1-28.54-8.42c-9.62-5.22-16.77-13.25-23.56-21.57-7.91-9.67-16.27-19.06-22-30.26a22.92,22.92,0,0,0-12.25-10.91c-4.36-1.81-9.16-2.35-13.11,1a58.75,58.75,0,0,0-8.52,9c-4.1,5.36-6.79,11.44-9.82,18.59.22-25.58,7.83-36,21.52-41.12,1.78,2.74,4.26,3.79,7.25,2.4s3.36-3.69,3-7c-1.35-14.44-.31-28.71,4.62-42.51a89.59,89.59,0,0,0,9.75,13.78c4.82,5.55,6.11,12,4.67,19.15a33.88,33.88,0,0,1-4.75,12.51c-.94,1.4-2.16,2.73.33,3.93,11.26,5.45,18.19,15.34,25.35,24.95,6.37,8.55,12.61,17.32,20.82,24.15,15,12.43,35.27,17,50.9-2.5a75.6,75.6,0,0,0,4.91-6.3c13.84-21.72,26.78-44,42.74-64.19-.8-1.44-2.07-1.35-3.16-1.67-12.08-3.55-24-1.7-36,.61-18,3.44-33.71-.78-45.84-15.27-1.59-1.9-4.17-3.59-2.58-6.77v.11c8.24,7.7,17.91,11,29.15,9.49,1.54-.21,3.54.31,3.35-2.4-.68-9.39,1.32-18.86-.88-28.21-.56-2.39-1.34-4.81-.77-7.34,3.51.87,5.27,3.93,7.58,6.23,8.71,8.66,9.66,14.25,4.63,25.2-.2.45-.44.9-.62,1.36-.9,2.35-1.08,4.7,1.24,6.27s4.67,1.27,6.93-.41c1.95-1.45,2.8-3.65,4-5.58a20.34,20.34,0,0,0,11.1-2.29c11.11-5.49,21.67-2.7,32.33,1,1.73.6,3.5,1.1,5.18,1.82a5.41,5.41,0,0,0,5.15-.29c22.25-11.83,44.6-10.17,66.61.4,15.32,7.36,26.87,19.6,37.85,32.15,17.31,19.77,39.06,31.66,64.19,38.27,36.68,9.64,74.58,9.29,111.85,14.12,1.29.28,2.57.64,3.88.81,21.67,2.86,43.24,6.11,63.49,15,.89.39,1.94,1.16,2.78.47,1.1-.89.35-2.19,0-3.25-4.69-15.63-9.19-31.34-19.24-44.65L1283.47,950c1.78,3.22,5.28,5.15,6.63,8.67,6.77,17.7,14.73,35,18.09,53.87,2,10.92,4.94,21.43,14.56,28.52.91.67,1.47,1.82,2.33,2.59,1.31,1.16,2.05,4.07,3.73,3.4,2.33-.92,2.31-3.75,2-6.15-.11-.82-.23-1.65-.31-2.48-2-21.82-1.75-43.64,2.13-65.2,5.87-32.6,20.8-61.27,39.75-88,7-9.92,14.32-19.67,20.89-29.88,11.26-17.48,23.54-34.41,31-54,3.73-9.77,7.23-19.64,7.8-30.24l0,.08c1-.34.86-1.12.8-1.88a32.41,32.41,0,0,1,1.73-4.63,251,251,0,0,0,13.51-29.29C1450.81,728.41,1453.33,721.48,1455.94,714.57Z" transform="translate(-0.89 -0.9)"/><path class="cls-6" d="M157.55,634.39c-1.61,10.05-5.42,19.49-8,29.28C138,708,113.26,744.27,81.4,776.34c-16.18,16.28-32.58,32.37-47.3,50C23.09,839.6,13.84,854,5,868.73c-1.28,2.13-2.68,4.18-4,6.27V741c1.81-.1,3.61-.24,5.42-.29,10.4-.3,20.73-1.05,30.58-4.84a7.65,7.65,0,0,0,4.11-1.49c7.86-2.67,15.41-5.93,21.8-11.4l8.25-5.66c13.5-11.65,22.19-26.3,27-43.38l0-.34c8.15-24.07,8.9-48.29,1.47-72.68-1-3.81-1.63-7.78-4-11.1A62.43,62.43,0,0,0,88,574a20.9,20.9,0,0,0-5.14-8,83.15,83.15,0,0,0-37.8-28.12c-2.4-1.77-5.49-1.6-8.07-2.86-11.9-3.66-23.88-4.71-36-1V408c7.55.31,13.24-3.61,18.53-8.27a138.34,138.34,0,0,0,22.31-25.45c7.57-11,16.23-21.07,24.63-31.39,2.3-2.82,3.72-2.85,6.07-.18,2.16,2.47,4.32,5.08,7.32,6.68,1.94,2.86,5.7,4,6.92,7.56-18.18,16-34.71,33.19-47.2,54.36-8.93,15.13-4,39.6,7.8,50,13.47,11.88,32.06,12.88,47.74,1.69s30.39-23.78,44.91-36.5c6.15,6.94,9.85,15.36,14.05,23.47.22.43-.26,1.22-.41,1.85-15.43,11.33-31,22.56-44.35,36.35-15.83,16.43-14,43.83,2.9,59,13.39,12,31.25,12.86,45.7,2.46,9.6-6.91,19.46-13.45,29.05-20.36,3.23-2.33,4.68-1.79,6.1,1.83,1.63,4.15,3.21,8.39,5.84,12.08l.84,2.76c-7.82,6.81-16.67,12.16-25.3,17.81-9.64,6.31-17.66,14.12-23.33,24.22C142.49,603.38,145.23,623.06,157.55,634.39Zm-28.91,22.5c-.38-2.89-1.86-4.74-4.86-4.66s-4.67,1.85-4.62,4.8,1.83,4.68,4.77,4.63S128.38,659.77,128.64,656.89ZM95,536.88c-.27-2.63-1.59-4.59-4.58-4.73s-4.76,1.58-4.9,4.49A4.35,4.35,0,0,0,90,541.57C93,541.73,94.6,540,95,536.88ZM59,511.36c-.17-3-1.78-4.73-4.68-4.8a4.32,4.32,0,0,0-4.79,4.6c0,2.88,1.6,4.75,4.61,4.78S58.61,514.22,59,511.36ZM16.5,503.29c-.24-2.85-1.73-4.71-4.68-4.73S7.06,500.14,7,503.15s1.65,4.7,4.6,4.79S16.11,506.19,16.5,503.29ZM129.42,613.55c-.38-2.85-1.88-4.64-4.88-4.52s-4.59,1.88-4.55,4.82,1.9,4.6,4.8,4.54S129.22,616.48,129.42,613.55ZM22.67,763.38c2.47-.53,4.36-2,4.18-5s-2-4.55-4.94-4.42a4.28,4.28,0,0,0-4.48,4.87C17.56,761.79,19.48,763.21,22.67,763.38Zm49.67-16.77c2.88-.17,4.79-1.56,4.91-4.53s-1.44-4.8-4.41-5-4.72,1.53-4.89,4.45S69.46,746.15,72.34,746.61Zm41.44-168.26c2.53-.35,4.42-1.69,4.33-4.72s-1.74-4.64-4.68-4.62-4.56,1.78-4.59,4.69S110.63,578.11,113.78,578.35Zm-4.49,124.21c-.27-2.84-1.72-4.65-4.68-4.62s-4.63,1.71-4.63,4.63,1.75,4.58,4.65,4.61S109.09,705.49,109.29,702.56Z" transform="translate(-0.89 -0.9)"/><path class="cls-7" d="M1750.68,527c-17.61-.79-33.8-5-46.09-18.84-1.76-2-3.63-3.91-6.33-4.67,1.85-2.31-.42-3.73-1.32-5.24-4.3-7.24-6.66-14.91-5.5-23.37,2-14.65,13.33-23.68,31.08-25,13.14-.95,25.34,3.27,37.59,7,9.42,2.87,18.33,7.09,27.43,10.8,5.41,2.2,10.89,4.22,16.73,4.95,1,.12,2.22.37,2.52-.87a3.16,3.16,0,0,0-.88-2.16c-2.12-2.64-4.93-4.45-7.75-6.24-13.22-8.36-27.44-15.21-39.36-25.54-8.45-7.32-15.2-15.86-18.13-26.95a31.33,31.33,0,0,1-.57-12.89c1.51-9.75,7-15.21,16.73-16.41,10.5-1.31,19.69,2,27.9,8.48s14.78,14.41,21.75,22a121.36,121.36,0,0,0,32.41,25.58c3.43,1.83,7.92,4.88,10.85,1,3.1-4.14-1.67-7.23-4.32-9.89-6.49-6.51-14.35-11.35-21.59-17-5.74-4.43-10.75-9.44-14-16-7.08-14.29-.2-28.08,15.5-30.92,13.44-2.44,24.84,2.55,35.62,9.83s18.85,17.31,27.57,26.7c10.3,11.09,19.81,23,32.5,31.65v32c-4.6-.29-8.85,1.22-13.14,2.54-12.18,3.75-24.14,8.72-37.42,5.57-3.59-.85-7.59.12-8.09,4.51-.47,4.16,3.34,5.4,6.65,6.09a53.83,53.83,0,0,0,29.44-1.75c7.32-2.55,14.62-5.57,22.56-6v32c-10.63-.1-13.78,2.42-15.53,13.12-1.07,6.56-1.53,13.21-2.47,19.79a41.61,41.61,0,0,1-11.72,24.28c-7.51,7.52-16.62,7.11-23.4-1a18.7,18.7,0,0,1-4.09-12c-.16-8,3-14.84,6.94-21.54,1-1.73,3-4,1-5.82-1.78-1.64-4.25-.12-6,1-10.48,6.8-14.06,17.82-17.39,29-4.24,2.92-6,7.89-9.49,11.45-6.6,6.73-14.35,11.61-23.74,12.69-13.61,1.57-26.17-9.9-27.15-24.08-.1-1.33-.09-2.67-.13-4,.24-10.16,5-17.64,13.5-23,1.16-.73,3.25-1.2,2.85-3-.35-1.55-2.32-1.63-3.71-2.06-3.42-1.08-6.87-.7-10.35-.17C1777.08,524.6,1764.08,527.57,1750.68,527Z" transform="translate(-0.89 -0.9)"/><path class="cls-8" d="M964.26,1058.16c-4.53,3.11-9.66,3.46-14.77,2.62-3.84-.62-3.58.85-2.42,3.35,1.59,3.42,4.45,5.27,8,6.13,10.06,2.47,17.76-1.53,24.15-9,1-1.12,1.79-2.37,2.67-3.56,17.31-.68,34.56-2,51.74-4.26A563.63,563.63,0,0,0,1116,1035.9c-.52,5.11-1.7,10.11-1.82,15.32-.1,4.48-3,8.07-6.56,10.76-5.14,3.89-10.92,6.69-17.39,6.9-9.12.29-17.7,2.68-26.24,5.45a70.86,70.86,0,0,1-17,3.83c-2.65.19-2.85,1.12-1,2.84H536a274.52,274.52,0,0,0,33.18-25.12c1.35-1.19,2.59-2.53,3.88-3.8a32,32,0,0,0,9.77-9.13c14.27-13.41,25.14-29.35,34.4-46.47a32.91,32.91,0,0,0,6.88-11.43q9-15.66,17.92-31.3c.89-1.56,2-3,2.93-4.54,8.09,5.87,16,11.94,24.29,17.56q102,69.59,224.34,86.4A547.69,547.69,0,0,0,964.26,1058.16Z" transform="translate(-0.89 -0.9)"/><path class="cls-9" d="M1845,750.44c2-.1,2.6-1.88,3.53-3.18q11.9-16.66,23.75-33.36c4.24-5.93,8.82-6.14,14.1-1.08,17.15,16.43,25.63,37.38,31.54,59.72.84,3.2,2,6.31,3.08,9.46v225a8,8,0,0,0-2,3.91c-4.33,14.26-9.26,28.32-14.47,42.29-3.46,9.28-8.07,18.13-10.52,27.8h-41c1.32-9.93,1-19.91,1-29.88,0-10.32,1.26-20.56,2.32-30.78,2-19.68,3.56-39.27,1.9-59.13-1.93-23.18-6.75-45.81-13.3-67.88a455.31,455.31,0,0,0-28-72.52,14.69,14.69,0,0,1-1.77-8.63c3-3.06,4.36-7,5.91-10.8,6.18-15.19,13.06-30,21.71-44C1844,755.27,1845.32,753.11,1845,750.44Z" transform="translate(-0.89 -0.9)"/><path class="cls-9" d="M1841,1081c-2-6.17-6.78-10.58-10.37-15.7-12.22-17.46-28.22-31.21-44.35-44.91-12.92-11-26.32-21.33-39.46-32a179.08,179.08,0,0,0-25.21-16.93c-18.39-10.33-36.52-21.17-56.47-28.42-11.73-4.26-23.72-7.74-35.3-12.45-4.31-1.75-8.52-3.64-12.74-5.58-5.54-11.35-11.23-22.68-14.2-35-2.41-10-4.84-20-7.92-29.88-4.44-17.78-3.8-36-4.66-54.06-.23-4.82-.51-9.63-1-14.43-.59-6.18,3.15-9.92,9.26-8.93a153.35,153.35,0,0,1,42.7,13.41c1.48.72,3,1.26,4.57,1.89,2.31,1.63,4.56,3.36,6.94,4.87,7.86,5,16.05,9.59,23.11,15.67,11.21,9.65,22,19.73,33,29.63,7.58,8.81,15.49,17.35,22.67,26.48,18.82,23.93,36.4,48.73,51.58,75.18,7.12,12.4,15.47,24.21,21.43,37.13,9.92,21.51,21.85,41.79,33.88,62.09,5.77,9.75,9.52,20.39,9.47,32Z" transform="translate(-0.89 -0.9)"/><path class="cls-2" d="M1848,1081c0-11.61-3.7-22.25-9.47-32-12-20.3-24-40.58-33.88-62.09-6-12.92-14.31-24.73-21.43-37.13-15.18-26.45-32.76-51.25-51.58-75.18-7.18-9.13-15.09-17.67-22.67-26.48a39.31,39.31,0,0,0,1-4.85c1.38-17.39,3.28-34.68,7.58-51.66,1.3-5.12,3.59-10.06,3.47-15.51,1.49-.82,1.68-2.38,2.14-3.78,4.22-13,9.52-25.5,14.56-38.14,3.1-7.79,6.69-8.49,12.9-3.21,8.2,7,17.55,12.58,25.2,20.28.35.35,1.22.17,1.85.24a26.36,26.36,0,0,0,2.18,3.85,232.68,232.68,0,0,1,26.49,40.83c2.71,5.4,4.15,11.62,8.78,16a14.69,14.69,0,0,0,1.77,8.63,455.31,455.31,0,0,1,28,72.52c6.55,22.07,11.37,44.7,13.3,67.88,1.66,19.86.14,39.45-1.9,59.13-1.06,10.22-2.34,20.46-2.32,30.78,0,10,.33,20-1,29.88Zm-54-276.68a9.58,9.58,0,0,0-.16-2.47c-3.74-11.55-7.46-23.19-15.38-32.68-5-6-10.58-11.54-18.13-14.46-1.45-.56-2.9-1-4.21.16s-.76,2.73-.13,4.1c1.8,3.92,3.21,8.1,5.53,11.68,8.23,12.67,18.06,24.18,27.11,36.26.93,1.24,2.15,2.33,3.8,1.73C1794.5,807.89,1793.84,805.9,1794,804.32Z" transform="translate(-0.89 -0.9)"/><path class="cls-1" d="M1118,1081c12.23-9.16,18.23-21.31,18.47-36.66.11-6.32,2.71-12.22,6.23-17.57l1.34-.89-.16.09c12.06-3.53,23.54-8.53,34.85-14,30.44,2.87,60.93,5.24,90.21,15.25,15.61,5.33,26.82,16.44,37.84,27.72,6.42,6.56,11.75,14.21,17.45,21.46A6.69,6.69,0,0,1,1326,1081Z" transform="translate(-0.89 -0.9)"/><path class="cls-10" d="M153.67,451.86c.15-.63.63-1.42.41-1.85-4.2-8.11-7.9-16.53-14.05-23.47-9.84-14.49-17.76-30.25-28.89-43.88-3.56-4.36-7-8.93-11-12.73-4.55-4.23-6.93-10.68-13.31-13-1.22-3.52-5-4.7-6.92-7.56.09-2.52-1.85-3.78-3.31-5.32C62.61,329.26,45.94,318,28.79,307.42c-5.36-3.31-10.67-6.81-16.9-8.41A54.94,54.94,0,0,0,1,295V274c10.43,3.53,20,9,29.63,14.1,6.13,3.26,12.22,6.61,18.33,9.93l13,8.79a7.37,7.37,0,0,0,1.23,1.55c18.54,13.36,34.85,29.11,50,46.17,1.93,2.17,3.64,4.85,6.88,5.49a3.56,3.56,0,0,0,1.06,3.16q8.72,10.21,17.4,20.46A3.72,3.72,0,0,0,141,385.1a6.74,6.74,0,0,0,1.92,3.41C155.45,404,168,419.45,178.07,436.66c4.53,7.71,8.73,15.61,13.08,23.42,1.45,7.48,5.88,13.88,7.77,21.19,4.84,15.67,11.23,30.79,16,46.5C218,538,222.28,547.94,226,558c4,11.42,7,23.13,10,34.86.7,14.75-1.28,29.44-1,44.19-5.09-7.5-10.22-15-15.25-22.51-2.84-4.23-7-7.53-8.82-12.48-1.9-12.41-3.65-24.84-5.78-37.21-1.11-6.45-1.58-13.17-5.39-18.88l-.84-2.76c.37-3.11-.91-5.88-1.93-8.66-10.3-28.15-24.83-54.19-40.09-79.86C156.1,453.38,155.33,452.14,153.67,451.86Z" transform="translate(-0.89 -0.9)"/><path class="cls-9" d="M1544,1002c2.45-.06,3.78,1.43,5.2,3.24,18.43,23.54,40.11,43.35,66.8,57.22,11.2,5.82,22.4,11.69,34.22,16.25a24.87,24.87,0,0,1,3.8,2.31H1508c-10.59-8.28-21.12-16.63-31.8-24.8a69.66,69.66,0,0,1-10.75-9.6c-4.07-4.71-3.61-9.31,1-13.52a99.56,99.56,0,0,1,20.73-14.54c1.31-.69,2.79-1.15,3.55-2.59,2.11.17,3.85-.87,5.68-1.66C1511.64,1007.72,1527.31,1002.9,1544,1002Z" transform="translate(-0.89 -0.9)"/><path class="cls-10" d="M37,535.05c2.58,1.26,5.67,1.09,8.07,2.86.29,1.8.64,3.58.86,5.39,1.14,9.32,6.3,15.74,14.49,19.85,7.11,3.56,14.85,2.83,22.45,2.88A20.9,20.9,0,0,1,88,574c-2.83,2.35-6.06,3-9.72,3.09-6.92.18-13.61-.55-20-3.18-3.07-1.26-5.1.58-6.24,2.61-1.3,2.32,1.64,2.9,3,3.71a93.51,93.51,0,0,1,17.19,13.48c1.6,1.59,3.07,2.33,5.25,1.1,5.62-3.18,12-3.87,18.15-5,2.41,3.32,3,7.29,4,11.1-4.42.61-8.92.88-13.24,1.9-5.31,1.25-5.68,2.27-3.36,7.16,5.06,10.69,6.25,21.64,1.82,32.72-1.78,4.45-.48,7,2.49,10.38,5.19,5.86,11.11,11.65,10.82,20.52l0,.34c-4,2.25-8.07,4.53-12.15,6.72-5.49,3-8,8.4-11.51,13.09a19.63,19.63,0,0,0-4.29,14.72c.31,2.95.66,5.9,1,8.85L62.91,723a34.28,34.28,0,0,1-2.7-24.86c1-3.8.22-5-3.75-5.2-10-.5-16.82,5.3-23.3,11.55-5.3,5.1-5,6,0,11.23s9.81,10.54,8,18.68A7.65,7.65,0,0,1,37,735.87a15,15,0,0,1-7-6.67c-6.46-11-15.44-18-29-17.2V701c4.91.81,9.85,1.47,14.72,2.48,2.37.49,4.3.44,5.72-1.68,2.64-3.92,6.14-7,9.61-10.11,1.72-1.54,1.92-2.67.57-4.6C24,676.16,15,667.17,1,665V654c1.77.42,3.57.75,5.32,1.27,1.5.45,2.94.79,4.21-.42,6.52-6.23,10.79-13.59,10.14-22.88a100,100,0,0,0-8.4-33.17C9.93,593.42,6.63,590.91,1,591V579c3.24.68,6.29,1.89,9.71,2.09,10.31.59,19.23-2.61,27.53-8.53,7.74-5.52,7.82-5.29,2.4-13.19-1.69-2.48-3.32-3.69-6.57-2.68C22.73,560.25,11.77,558.06,1,554V543c1.89-.08,3.46.92,5.18,1.48,8,2.66,16.13,4.75,24.58,1.75,1.88-.66,4.07-1.1,4.11-3.61C34.91,539.87,36.51,537.63,37,535.05ZM76.9,628.42a47.93,47.93,0,0,0-8.66-22.56c-6.44-8.82-15.43-14.47-24.56-20-2.39-1.43-4.81-.95-7.12.32A35.58,35.58,0,0,1,25,590.66c-3.9.59-3.69,2.37-2.5,5.07C27.91,608.18,31.86,621,31,634.79c-.2,3.45,1,4.37,4.46,3.08a39,39,0,0,1,28.7.2c10.59,4.22,11.77,3.44,12.71-8.15C76.92,629.59,76.9,629.26,76.9,628.42ZM50,645.85c-9.32.68-16.85,4.74-24.48,8.37-1.48.71-2.33,2.74-3.45,4.18-1.31,1.71-.82,3,.86,4.18,7.25,5,12.86,11.52,17.64,18.81,1.27,2,2.65,2.69,5,2,6.34-1.93,12.82-1.74,19.29-.85,1.64.22,3,.17,3.94-1.29,3.26-4.88,8.16-7.8,13.08-10.59,2.61-1.48,3.32-2.92,1.55-5.5C75.23,653.15,63.47,647.55,50,645.85Z" transform="translate(-0.89 -0.9)"/><path class="cls-11" d="M11.89,299c6.23,1.6,11.54,5.1,16.9,8.41,17.15,10.6,33.82,21.84,47.76,36.65,1.46,1.54,3.4,2.8,3.31,5.32-3-1.6-5.16-4.21-7.32-6.68-2.35-2.67-3.77-2.64-6.07.18-8.4,10.32-17.06,20.43-24.63,31.39a138.34,138.34,0,0,1-22.31,25.45c-5.29,4.66-11,8.58-18.53,8.27V313Z" transform="translate(-0.89 -0.9)"/><path class="cls-9" d="M58,1c6.18,8,14,14,22.51,19.23,12.31,7.61,25.91,12.09,39.72,16,19.33,5.41,32,18,38.72,36.47,4.64,12.64,11.5,23.29,23.48,29.93,9.19,5.08,19.48,6.61,29.64,8.42s20.43,2.6,30.37,5.59c16,4.82,27.47,14.94,36,29.08,6.16,10.25,12.46,20.41,22.4,27.8,7.17,5.33,15.29,8.12,23.64,10.34,17.07,4.55,32.29,12.43,45.15,24.52,3.84,3.61,6.93,8.06,10.08,12.34,2,2.71,1.92,5.65-.92,8-3.09,2.57-5.27.57-7.21-1.64-6.58-7.51-13-15.13-21.63-20.52-8-5-16.27-9.31-25.44-11.34-23.2-5.12-40.9-17.85-52-38.69C261,134.67,242.75,124.84,219,122.94a138.82,138.82,0,0,1-29.79-6.06q-28.06-8.66-38.51-36.19a84.42,84.42,0,0,0-8.05-16.59c-7.81-12-20.14-16.43-33-19.91A129.26,129.26,0,0,1,50,9.44C47.57,7,45.13,4.43,44,1Z" transform="translate(-0.89 -0.9)"/><path class="cls-11" d="M49,298c-6.11-3.32-12.2-6.67-18.33-9.93C21,283,11.43,277.53,1,274V213c10.71-9.56,22.74-13.95,37-9.45a19.19,19.19,0,0,1,5.73,8C49.69,227.27,55.8,242.87,63,258a66.13,66.13,0,0,1-5.72,23.62C54.79,287.21,51.76,292.57,49,298Z" transform="translate(-0.89 -0.9)"/><path class="cls-6" d="M1848.41,554.71c3.33-11.14,6.91-22.16,17.39-29,1.72-1.11,4.19-2.63,6-1,2,1.84,0,4.09-1,5.82-3.89,6.7-7.1,13.55-6.94,21.54a18.7,18.7,0,0,0,4.09,12c6.78,8.14,15.89,8.55,23.4,1A41.61,41.61,0,0,0,1903,540.91c.94-6.58,1.4-13.23,2.47-19.79,1.75-10.7,4.9-13.22,15.53-13.12V651c-3.34-3.52-5.33-7.94-7.76-12-12.55-21.12-25-42.34-39.72-62C1866.71,567.86,1858.79,559.84,1848.41,554.71Z" transform="translate(-0.89 -0.9)"/><path class="cls-3" d="M1,591c5.63-.09,8.93,2.42,11.27,7.8A100,100,0,0,1,20.67,632c.65,9.29-3.62,16.65-10.14,22.88-1.27,1.21-2.71.87-4.21.42-1.75-.52-3.55-.85-5.32-1.27Z" transform="translate(-0.89 -0.9)"/><path class="cls-2" d="M1894,1081c2.45-9.67,7.06-18.52,10.52-27.8,5.21-14,10.14-28,14.47-42.29a8,8,0,0,1,2-3.91c0,23.67,0,47.33.07,71,0,2.5-.56,3.13-3.07,3.07C1910,1080.88,1902,1081,1894,1081Z" transform="translate(-0.89 -0.9)"/><path class="cls-3" d="M1,554c10.77,4.06,21.73,6.25,33.07,2.69,3.25-1,4.88.2,6.57,2.68,5.42,7.9,5.34,7.67-2.4,13.19-8.3,5.92-17.22,9.12-27.53,8.53-3.42-.2-6.47-1.41-9.71-2.09Z" transform="translate(-0.89 -0.9)"/><path class="cls-3" d="M1,665c14,2.17,23,11.16,30.62,22.09,1.35,1.93,1.15,3.06-.57,4.6-3.47,3.1-7,6.19-9.61,10.11-1.42,2.12-3.35,2.17-5.72,1.68-4.87-1-9.81-1.67-14.72-2.48Z" transform="translate(-0.89 -0.9)"/><path class="cls-4" d="M1,712c13.54-.81,22.52,6.21,29,17.2a15,15,0,0,0,7,6.67c-9.85,3.79-20.18,4.54-30.58,4.84-1.81,0-3.61.19-5.42.29Z" transform="translate(-0.89 -0.9)"/><path class="cls-3" d="M1921,476c-7.94.39-15.24,3.41-22.56,6a53.83,53.83,0,0,1-29.44,1.75c-3.31-.69-7.12-1.93-6.65-6.09.5-4.39,4.5-5.36,8.09-4.51,13.28,3.15,25.24-1.82,37.42-5.57,4.29-1.32,8.54-2.83,13.14-2.54Z" transform="translate(-0.89 -0.9)"/><path class="cls-6" d="M38,203.55c-14.3-4.5-26.33-.11-37,9.45V181c9.8,4.13,19.9,7.65,28.83,13.55C33.23,196.8,36.81,199.19,38,203.55Z" transform="translate(-0.89 -0.9)"/><path class="cls-12" d="M493,1081c-.4-2.75-2.67-4.13-4.39-5.85-7.16-7.17-14.52-14.14-19.35-23.26-1.54-2.92-2.28-5.91.78-8s6.34-1,8.17,2.06c7.92,13.41,19.45,23.36,31.24,33.09A12.25,12.25,0,0,1,511,1081Z" transform="translate(-0.89 -0.9)"/><path class="cls-4" d="M37,535.05c-.48,2.58-2.08,4.82-2.12,7.57,0,2.51-2.23,3-4.11,3.61-8.45,3-16.55.91-24.58-1.75C4.46,543.92,2.89,542.92,1,543v-9C13.11,530.34,25.09,531.39,37,535.05Z" transform="translate(-0.89 -0.9)"/><path class="cls-6" d="M11.89,299,1,313V295A54.94,54.94,0,0,1,11.89,299Z" transform="translate(-0.89 -0.9)"/><path class="cls-13" d="M964.26,1058.16a547.69,547.69,0,0,1-70.67-5q-122.37-16.73-224.34-86.4c-8.25-5.62-16.2-11.69-24.29-17.56l8.56-16.31c2.93-5.61,5.62-11.32,7.08-17.53,4-17.23-5.15-31.15-22.71-33.6-13.49-1.88-27.24-1.75-40.6-4.77-12-2.7-24-5.48-36-8.23-17.7-22.13-34.23-45.07-48.55-69.57-33.93-58-56.56-120.13-65.83-186.7Q416.05,390.64,552,212.24c6.76-8.86,14.22-17.19,21.36-25.77a89.73,89.73,0,0,0,9.44-.48c11.19-1.7,21.83-12,22.44-21.57,1.56-2,3-.31,4.4.22a40.25,40.25,0,0,0,18.63,2.57c19.53-2,33-13.14,42.78-29.3,4.17-6.84,6.9-14.38,9.85-21.81,4.16-10.49,7.53-21.35,14.12-30.73.78-.3,1.64-.5,2-1.44l-.07,0,37.16-20c12.1-3.65,23-10,34.56-15A503.83,503.83,0,0,1,877.91,18.14a524.33,524.33,0,0,1,274.46,27.64c.62.24,1.26.42,1.9.62L1177,56.08c2.53,1.07,4.56,3.43,7.67,3,22,10.92,43.71,22.51,64.42,35.81.25.16.65.08,1,.11l0,0c0,.68.42,1,1,1.1,1,2.64,2.16,5.23,2.94,7.93a171.6,171.6,0,0,0,19.25,42.11c3.47,5.6,7.31,11,11.19,16.76-39.91,4.75-76.8,21-116.4,25.86a20.35,20.35,0,0,1,4-3.54c4.65-3.24,9.3-6.47,13.22-10.62,9.17-9.71,10.7-19.64,4.8-31.53-2-4-4-8-6.07-12-.46-4,1.71-7.41,2.19-11.19.73-5.9-2.95-8.94-8.51-6.87a14.36,14.36,0,0,0-4.63,2.84c-6.32,5.9-12.94,11.55-18.69,18-13.88,15.53-18.54,33.1-10,53a8.3,8.3,0,0,1,.85,4.34c-20.56-1.31-38.51-8.69-53.13-23.39-10.94-11-16.71-24.12-16.21-40,.29-9,1.14-17.94,1.57-26.92.78-16.66-3.09-32.07-12.51-45.9-10.63-15.61-30.16-22.91-49.33-10.72-16.94,10.78-27.79,25.64-32.37,45-2.57,10.84-4.36,21.87-6.09,32.88a19.51,19.51,0,0,1-8.18,13.13c-9.83,7.36-19.83,7.36-30.24,1.15-18.29-10.92-29.69-28-41.61-45.43,10.49-2.35,18.35-7.78,25.2-15.23C933,63.87,935.15,49,937.39,34.2c.37-2.47-.44-5-3.43-5.93-2.55-1.81-5.07-.93-7.54.17a180.69,180.69,0,0,0-22.51,11.62c-8.85,5.55-16.28,12.6-21.3,21.85-4,7.29-6.33,15-3.11,23.28,3.19,8.55,8.45,16.34,10.24,25.36,1.87,9.4,6.57,17,13.34,23.35,3.23,3,3.49,5.07-.19,8-2.39,1.91-4.06,4.82-5.73,7.48-4.42,7.06-10.71,11.77-18.27,14.83-4.15,1.69-8.5,2.85-12.73,4.31-2.49.86-5.2,1.47-6.11,4.49-1.52,4.19.25,7.75,4.93,9.43,3,1.06,6.18,1.49,9,2.77,12.55,5.62,25.58,6.51,39,4.66,13-1.79,20.46-10.52,19.78-23.6A34.15,34.15,0,0,0,931,157c2-.32,3.49.93,5.17,1.57,8.58,3.27,17.3,4.67,26.42,2.48,19.5-4.69,32.22-18.26,35.46-37.85,1.28-7.72,2.71-15.41,4.08-23.11,3-16.95,10.79-30.65,26.47-39,5.69-3,10.29-2.51,15.13,1.72a28.37,28.37,0,0,1,5.52,7c6.91,11.59,7.8,24.23,6.46,37.22-.79,7.63-1,15.29-1.09,23-.09,17,5,32.25,15.92,45.23,24.45,29.18,56.18,40.78,93.48,36.09,27.44-3.44,54.09-11.1,80.65-18.72,12.82-3.68,25.7-7.1,39-8.15,12.59-1,24.31-.08,34.74,9.3,11,9.85,23,18.77,36.72,24.77,1.82.79,1.71,2.21,1.79,3.69,1.65,29.35,12.73,55.55,27,80.66,1.31,2.31,3.92,4.56,3.87,6.8-.05,2.68-4.2,2.28-6.1,4-1.11,1-2.29,1.91-3.34,2.95-5.25,5.18-8.06,11.68-10.44,18.53-5.19,14.92-7.9,30.64-14.71,45l-6.16,10.11c8.19-.25,15.15-1.64,21.55-5.09,15.58-8.41,30-18,37-35.47,2-5,6.36-6,11.22-3.65,1.34.65,2.71,1.22,4.06,1.82,4,4.95,9,8.9,13.88,12.85q14.2,11.4,28.36,22.85c1.78,1.45,3.65,2.91,4.24,5.35a542.6,542.6,0,0,1,13.8,61.63c2.52,15.23,3.88,30.58,5.5,45.91,1.41,18.38,1.3,36.79,1.24,55.21-1.33,15.75-2,31.55-4,47.26-5.08,39.58-13.86,78.25-28.12,115.6-2.61,6.91-5.13,13.84-7.85,20.7a251,251,0,0,1-13.51,29.29,32.41,32.41,0,0,0-1.73,4.63,1.81,1.81,0,0,0-.8,1.88l0-.08c-1,1.7-2.11,3.35-3,5.1a527,527,0,0,1-107,140.77c-12.38,11.62-25.57,22.27-38.61,33.11l-17.39,12.65a595,595,0,0,1-50.94,31.62c-37.27-4.83-75.17-4.48-111.85-14.12-25.13-6.61-46.88-18.5-64.19-38.27-11-12.55-22.53-24.79-37.85-32.15-22-10.57-44.36-12.23-66.61-.4a5.41,5.41,0,0,1-5.15.29c-1.68-.72-3.45-1.22-5.18-1.82-10.66-3.71-21.22-6.5-32.33-1a20.34,20.34,0,0,1-11.1,2.29c3.69-7.49,4.43-15,.42-22.67a56.9,56.9,0,0,0-12.86-16.27c-2.46-2.17-5.29-3.77-8.56-1.92-3,1.69-3.45,4.62-2.8,7.79-.57,2.53.21,4.95.77,7.34,2.2,9.35.2,18.82.88,28.21.19,2.71-1.81,2.19-3.35,2.4-11.24,1.52-20.91-1.79-29.16-9.46-.17.23-1.09,0-.35.71.11-.28.23-.57.35-.85-1.59,3.18,1,4.87,2.58,6.77,12.13,14.49,27.85,18.71,45.84,15.27,12-2.31,24-4.16,36-.61,1.09.32,2.36.23,3.16,1.67-16,20.17-28.9,42.47-42.74,64.19a75.6,75.6,0,0,1-4.91,6.3c-15.63,19.47-35.95,14.93-50.9,2.5-8.21-6.83-14.45-15.6-20.82-24.15-7.16-9.61-14.09-19.5-25.35-24.95-2.49-1.2-1.27-2.53-.33-3.93a33.88,33.88,0,0,0,4.75-12.51c1.44-7.12.15-13.6-4.67-19.15A89.59,89.59,0,0,1,759.11,902c-.81-3.31-2.85-5.25-6.33-5.18-3.14.06-4.79,2.16-5.46,5-3.7,15.6-6.39,31.28-3.13,47.34-13.69,5.14-21.3,15.54-21.52,41.12,3-7.15,5.72-13.23,9.82-18.59a58.75,58.75,0,0,1,8.52-9c4-3.35,8.75-2.81,13.11-1a22.92,22.92,0,0,1,12.25,10.91c5.74,11.2,14.1,20.59,22,30.26,6.79,8.32,13.94,16.35,23.56,21.57a70,70,0,0,0,28.54,8.42c12.87.88,23.82-5.13,33.57-13.3,12.31-10.3,19.43-24.42,27.87-37.57,9.15-14.26,18-28.75,28.72-41.9,15.53-19,35.53-21.61,58.12-12.65,14,5.57,23,17.5,33.54,27.36,5.11,4.77,9.73,10.06,14.92,14.74,3,2.71,2.51,4.45.07,7.13-8.7,9.56-20,14.22-32,17.68-4.12,1.19-8.12,2.75-12.16,4.19-9.69,3.47-14.54,10.82-17.13,20.11a78.55,78.55,0,0,0-3,20.42C972.85,1046.26,971.52,1053.75,964.26,1058.16Z" transform="translate(-0.89 -0.9)"/><path class="cls-5" d="M1184.66,59.08c-3.11.43-5.14-1.93-7.67-3l-22.72-9.68c34-17.54,77.38-6.76,100.72,16.73a64.73,64.73,0,0,1,16.11,25.43c3.41,10.23,6.1,20.75,11.32,30.32,5.57,11.91,12.23,23.15,21,33,14.69,16.52,32.39,29.45,50.41,42,4.81,3.34,4.91,3.2,6-2.82,1.06-3.32,2.23-6.61,3.17-10a77.09,77.09,0,0,1,26.56-40.17c13.74-11.11,29-15.37,46.15-9.1,2.84,1,4,.87,4.62-2.48a43.24,43.24,0,0,1,9.41-19.63c11.85-14.46,21.52-30,25.55-48.6a13,13,0,0,1,1.12-2.77,16.48,16.48,0,0,1,1.69-2.08c3.16,8.72,6.42,16.7,8.3,25.19-2,4.46-2.25,9.33-3.34,14-4.23,18-7.74,36.21-20.26,50.87a7.7,7.7,0,0,0-1.62,7.52c2,5.75,6.34,9.09,12.38,10.1,4.63,9.26,9.52,18.53,9.78,29.13.4,15.64-1.62,30.58-13.92,42.24-8.41,8-18.27,11.26-29.63,10.65-1.93-.1-4-.23-5.57-2.6,3.57-1.28,6.94-2.55,10.35-3.71,11.57-3.95,18.24-11.75,20.94-23.86,3.66-16.44.63-30.52-11.1-42.9-5.5-5.8-10.44-12.11-17.11-16.7-12.73-8.76-24.32-8-35.88,2.28-16.68,14.79-21.77,34.4-23.32,55.52a70.22,70.22,0,0,0,1.56,21.36c10.42,46.68,35.69,83.75,73.41,112.68l-.11,0,.86.55c7.34,6,14.75,11.93,22,18,17.39,14.54,27.57,33.46,33.17,55.11.49,1.89,1,3.77,1.63,6,15.87-15.39,32.81-25.24,54.93-13.63,2.38,1.87,4.48,4.17,7.51,5.08-.52,2.19,1.27,3.3,2.28,4.73,9.36,13.17,13.87,27.85,11.6,43.84-1.88,13.22-9.06,24.26-18.18,33.79a202.47,202.47,0,0,1-19.37,18c-16.47,13.24-23.35,30.23-21.52,51,.08.88.63,1.94-.83,3-3.76-5.29-4.75-11.21-4.47-17.36a59.59,59.59,0,0,1,11.9-33.4c4.25-5.76,8.37-11.63,12.88-17.19,7.23-8.94,12.24-19.09,16.17-29.72,5.21-14.09,3.35-27.51-5.45-39.83-3.7-5.18-8.4-7-14.78-5.32-10.89,2.88-17.29,10.6-21.41,20.16a188.57,188.57,0,0,0-11.86,36,291.17,291.17,0,0,1-19.14,60.37c-.72,1.6-.93,3.62-2.87,4.48.06-18.42.17-36.83-1.24-55.2.4-2.45.61-4.95,1.23-7.35a128.27,128.27,0,0,0,4-40.1c-1.19-19.12-6.28-37.06-17.35-52.95-1.93-2.77-3.53-6.09-7.23-7.15-.59-2.44-2.46-3.9-4.24-5.35q-14.14-11.48-28.36-22.85c-4.93-3.95-9.86-7.9-13.88-12.85-.16-1.62-1.25-2.68-2.33-3.73-4.36-4.22-7.33-9.42-10.41-14.57-1.46-2.44-2-7.27-5-6.46-2.8.74-1.27,5.35-1.13,8.15a38.75,38.75,0,0,1-6.89,24c-10,14.93-25.62,20.48-41.9,24.88,6.81-14.39,9.52-30.11,14.71-45,2.38-6.85,5.19-13.35,10.44-18.53,1-1,2.23-2,3.34-2.95,1.9-1.7,6-1.3,6.1-4,0-2.24-2.56-4.49-3.87-6.8-14.29-25.11-25.37-51.31-27-80.66-.08-1.48,0-2.9-1.79-3.69-13.75-6-25.75-14.92-36.72-24.77-10.43-9.38-22.15-10.3-34.74-9.3-13.34,1.05-26.22,4.47-39,8.15-26.56,7.62-53.21,15.28-80.65,18.72-37.3,4.69-69-6.91-93.48-36.09-10.87-13-16-28.26-15.92-45.23,0-7.66.3-15.32,1.09-23,1.34-13,.45-25.63-6.46-37.22a28.37,28.37,0,0,0-5.52-7c-4.84-4.23-9.44-4.74-15.13-1.72-15.68,8.35-23.46,22.05-26.47,39-1.37,7.7-2.8,15.39-4.08,23.11-3.24,19.59-16,33.16-35.46,37.85-9.12,2.19-17.84.79-26.42-2.48-1.68-.64-3.19-1.89-5.17-1.57-1-1.06-1-2.41-1-3.74,0-2.57-.84-4.8-3.71-5s-3.86,2-4.45,4.42a13,13,0,0,1-6.88,8.73c-5.13,2.75-10.25,5.4-16,6.92A135.48,135.48,0,0,1,860.05,173c.91-3,3.62-3.63,6.11-4.49,4.23-1.46,8.58-2.62,12.73-4.31,7.56-3.06,13.85-7.77,18.27-14.83,1.67-2.66,3.34-5.57,5.73-7.48,3.68-2.94,3.42-5,.19-8-6.77-6.38-11.47-14-13.34-23.35-1.79-9-7-16.81-10.24-25.36,2.93.08,4.57-1.21,6.2-3.88a72.65,72.65,0,0,1,14.66-16.89c9.77-8.51,19.49-17.08,29.29-25.57,3.28-2.83,4.89-6.23,4.31-10.58,3,.91,3.8,3.46,3.43,5.93C935.15,49,933,63.87,922.16,75.68c-6.85,7.45-14.71,12.88-25.2,15.23,11.92,17.41,23.32,34.51,41.61,45.43,10.41,6.21,20.41,6.21,30.24-1.15A19.51,19.51,0,0,0,977,122.06c1.73-11,3.52-22,6.09-32.88,4.58-19.32,15.43-34.18,32.37-45,19.17-12.19,38.7-4.89,49.33,10.72,9.42,13.83,13.29,29.24,12.51,45.9-.43,9-1.28,17.92-1.57,26.92-.5,15.86,5.27,29,16.21,40,14.62,14.7,32.57,22.08,53.13,23.39,1.79,3.91,5.22,3.52,8.09,2.29,3.26-1.4.62-3.94.24-6a22.79,22.79,0,0,1-.39-4c-.06-23.58,14.59-38.5,30.9-52.43,2,4,4.08,8,6.07,12,5.9,11.89,4.37,21.82-4.8,31.53-3.92,4.15-8.57,7.38-13.22,10.62a20.35,20.35,0,0,0-4,3.54c39.6-4.82,76.49-21.11,116.4-25.86-3.88-5.78-7.72-11.16-11.19-16.76A171.6,171.6,0,0,1,1253.93,104c-.78-2.7-2-5.29-2.94-7.93-.07-.6-.18-1.17-1-1.1l0,0c-.27-7.07-4.84-11.75-9.4-16.28C1225.14,63.29,1206,58,1184.66,59.08Z" transform="translate(-0.89 -0.9)"/><path class="cls-10" d="M400,846l-2,0a23.47,23.47,0,0,0-4.22-11.1c-9.38-14-21.16-25.9-36-33.78C340.18,791.79,321,787.74,301,788l-16.15-48.15c1.85-4.81,3.52-9.7,5.62-14.4,2.91-6.54,7.56-9.83,12.86-9.25,6.54.7,9.94,5.06,11.51,10.93,2.46,9.16,4.62,18.39,7,27.58.4,1.59,1,3.12,1.87,5.83,3.85-6.26,7.19-11.73,10.56-17.18,1.92-3.12,3.76-6.3,5.85-9.3,3.36-4.84,8.1-6.84,12.84-5.68,4.93,1.21,8.62,5.42,9,11.35.38,6.46.1,13,.11,19.46v18.95c4-2.55,7.76-4.91,11.48-7.3,6.87-4.41,13.66-8.93,20.6-13.21,5-3.1,10.37-4,15.48-.29,4.89,3.51,5.78,8.69,5,14.29-1.49,10.17-5.26,19.54-10,28.6-4.15,7.95-4.06,7.76,4.66,7.64,9.48-.13,19,.24,28.46.4.49,0,1,.11,1.48.17,5.53.73,10,3,11.44,8.82,1.36,5.62-1.47,9.59-5.79,12.78a119.92,119.92,0,0,1-15.36,9.29c-1.86,1-4,1.6-5.61,3.79l7.4,3.83c-6.46.75-12.78-1.5-19.24-.91Z" transform="translate(-0.89 -0.9)"/><path class="cls-11" d="M191.15,460.08c-4.35-7.81-8.55-15.71-13.08-23.42C168,419.45,155.45,404,142.92,388.51A6.74,6.74,0,0,1,141,385.1c18.45-13.9,37.43-26.73,60.92-30.52,3.28-.53,6.6-.93,9.92-1.13,13.36-.8,23.6,4.67,30.63,15.95,14.87,23.87,13.7,59.06-19.15,76C212.83,450.82,202.46,456.48,191.15,460.08Zm48.68-54.72a11.1,11.1,0,0,0-1.24-5.59c-1.45-2.75-3.37-5.23-7-4.25s-4.19,4.13-3.4,7.22c1.44,5.65-.37,10-4.24,14.06-2.33,2.43-2.75,5.56,0,8,2.53,2.27,5.25,1.37,7.64-.69C237.05,419.37,239.7,413.31,239.83,405.36Z" transform="translate(-0.89 -0.9)"/><path class="cls-11" d="M226,558c-3.75-10.07-8-20-11.12-30.24-4.76-15.71-11.15-30.83-16-46.5,2.6-.19,4.62-1.79,6.85-2.86,15.58-7.43,31.6-14.14,49.14-13.1,20,1.19,37.09,9.12,47.92,27.06,8,13.19,6.61,23.24-4,34.3-9.58,10-21.42,16.22-34.48,20.2C251.61,550.76,238.79,554.31,226,558Zm72-50c-.37-4.24-1.16-7.81-5.67-8.05-4.87-.27-5.49,3.24-5.38,7.09.09,2.78-1.33,5.08-2.58,7.43-1.59,3-4.38,4.93-6.64,7.35-2.06,2.2-2.55,4.76-.72,7.22,1.94,2.61,4.7,2.43,7.14.88A29.37,29.37,0,0,0,298,508Z" transform="translate(-0.89 -0.9)"/><path class="cls-5" d="M768.64,49c-11.53,5-22.46,11.34-34.56,15a42.44,42.44,0,0,0-23.88,5.57C704.41,72.9,699,77,696.92,84l.07,0c-1.32-.42-1.6.56-2,1.44-6.59,9.38-10,20.24-14.12,30.73-2.95,7.43-5.68,15-9.85,21.81-9.83,16.16-23.25,27.28-42.78,29.3a40.25,40.25,0,0,1-18.63-2.57c-1.39-.53-2.84-2.18-4.4-.22A52.94,52.94,0,0,0,604,157.6c-2-6.09-4.39-7.22-10.44-5.31a25.89,25.89,0,0,1-6.25,1.6c-21.26,1.09-40.74-3-55.65-19.78-2-2.28-4.34-3.55-7.44-3.09,1-7.75,5.69-10.81,12.88-8.06s14,6.21,21.31,8.54a52.55,52.55,0,0,0,22.68,2.15c4.76-.6,6.32-3.15,5-7.63-2.37-8.22-3.51-16.49-1.5-25,2.38-10.13,2-19.87-5.15-28.31-.68-.8-1.23-1.68-.48-2.67,1-1.33,2.26-1.08,3.57-.47a17.52,17.52,0,0,1,10.6,14.09c1.28,8.62.38,17.3.67,25.94a29.24,29.24,0,0,0,5.3,16.37c4.8,6.74,10,13.2,17,18,1.81,1.7,4.11,1.95,6.43,2.17,9.15.86,16.42-3.08,22.75-9.14,8.27-7.94,12.35-18.22,15.74-28.85,3.34-7.77,6.52-15.62,10-23.3a79.58,79.58,0,0,1,14.77-22.37c18.87-19.62,42.27-22.66,67.59-18.08A66.25,66.25,0,0,1,768.64,49Z" transform="translate(-0.89 -0.9)"/><path class="cls-11" d="M235,637.06c-.26-14.75,1.72-29.44,1-44.19a302.13,302.13,0,0,1,63.15,2.68c25.75,3.84,35.18,29.88,31.41,48.07C327.43,658.8,316.84,667,303.21,672c-14.31,5.22-28.86,3.27-43.35.58-2-.36-4-.51-5.93-.76q-8.87-15.77-17.71-31.54A24.34,24.34,0,0,1,235,637.06Zm87.94,2.13c0-.5,0-1,0-1.49-.27-3.86-1-7.69-5.87-7.68-5.27,0-5.29,4.08-5,7.88.33,4-1.31,7.07-3.75,9.93a34.45,34.45,0,0,0-3.51,4.17c-1.44,2.3-1.55,4.82.57,6.81a4.91,4.91,0,0,0,6.83.19C318.44,653.89,323,647.74,322.93,639.19Z" transform="translate(-0.89 -0.9)"/><path class="cls-4" d="M1721,776.1c.12,5.45-2.17,10.39-3.47,15.51-4.3,17-6.2,34.27-7.58,51.66a39.31,39.31,0,0,1-1,4.85c-11-9.9-21.82-20-33-29.63-7.06-6.08-15.25-10.68-23.11-15.67-2.38-1.51-4.63-3.24-6.94-4.87a137,137,0,0,1,11.49-45.8c2.75-6.21,5.33-7.8,12.09-6.68a68.44,68.44,0,0,1,20.27,6.88A108.56,108.56,0,0,1,1721,776.1Z" transform="translate(-0.89 -0.9)"/><path class="cls-11" d="M120,360c-3.24-.64-5-3.32-6.88-5.49-15.12-17.06-31.43-32.81-50-46.17A7.37,7.37,0,0,1,62,306.82,127.94,127.94,0,0,1,83.07,282c5,1.72,9.33,4.94,14.33,6.85,14.11,5.38,28.43,7.25,43.41,4.58,5-.89,10.14-1.87,15.33-1.37,2.35,10.67-.65,20.47-5.39,29.79C143.19,336.67,132.22,348.86,120,360Z" transform="translate(-0.89 -0.9)"/><path class="cls-4" d="M1595,860.07c3.08,9.84,5.51,19.85,7.92,29.88,3,12.36,8.66,23.69,14.2,35-11-3.16-22-6.58-33.09-9.41-14.37-3.68-29-6-43.88-5.58-.4-4.11-2.86-7.4-4.45-11-4-9.12-6.46-18.52-5.82-28.56.45-7,1.51-7.76,8.36-9.49,12.15-3.06,24.31-5.34,37-4.93C1582.09,856.22,1588.42,858.51,1595,860.07Z" transform="translate(-0.89 -0.9)"/><path class="cls-4" d="M1815.1,812.18c-4.63-4.39-6.07-10.61-8.78-16a232.68,232.68,0,0,0-26.49-40.83,26.36,26.36,0,0,1-2.18-3.85c3.59-12.7,8-25,15.84-35.84,6.53-9.06,6.77-9.15,16.48-2.79a106.15,106.15,0,0,1,35,37.58c.32,2.67-1,4.83-2.28,6.94-8.65,14-15.53,28.81-21.71,44C1819.46,805.19,1818.06,809.12,1815.1,812.18Z" transform="translate(-0.89 -0.9)"/><path class="cls-4" d="M1544,1002c-16.67.92-32.34,5.74-47.55,12.31-1.83.79-3.57,1.83-5.68,1.66-12.45-9.59-22.64-21.06-29.56-35.3-3.17-6.51-2.46-9.65,3.77-13.82a65.15,65.15,0,0,1,15-6.88,135.41,135.41,0,0,1,31.13-7c2.67,1.78,3.4,4.87,4.82,7.42C1524,975.11,1533.77,988.7,1544,1002Z" transform="translate(-0.89 -0.9)"/><path class="cls-13" d="M1453.07,348c-37.72-28.93-63-66-73.41-112.68A70.22,70.22,0,0,1,1378.1,214c15.46,19,28.66,39.49,40.91,60.64a514.42,514.42,0,0,1,32.77,68.17C1452.44,344.44,1453.47,346.07,1453.07,348Z" transform="translate(-0.89 -0.9)"/><path class="cls-4" d="M524.2,131c3.1-.46,5.41.81,7.44,3.09C546.55,150.89,566,155,587.29,153.89a25.89,25.89,0,0,0,6.25-1.6c6.05-1.91,8.49-.78,10.44,5.31a52.94,52.94,0,0,1,1.28,6.82C604.65,174,594,184.29,582.82,186a89.73,89.73,0,0,1-9.44.48c-22.1-4.74-36.69-18.54-46-38.5A34.12,34.12,0,0,1,524.2,131Z" transform="translate(-0.89 -0.9)"/><path class="cls-9" d="M1473.56,163.92c-6-1-10.38-4.35-12.38-10.1a7.7,7.7,0,0,1,1.62-7.52c12.52-14.66,16-32.89,20.26-50.87,1.09-4.66,1.36-9.53,3.34-14,7.52,21.91,11.36,44,3,66.61a19.44,19.44,0,0,0-1.19,3.8C1487.07,160.43,1481,163,1473.56,163.92Z" transform="translate(-0.89 -0.9)"/><path class="cls-13" d="M1359.83,191.05c-1.09,6-1.19,6.16-6,2.82-18-12.53-35.72-25.46-50.41-42-8.77-9.86-15.43-21.1-21-33,16,11.59,30.69,24.83,45.06,38.38C1338.83,168,1349.25,179.59,1359.83,191.05Z" transform="translate(-0.89 -0.9)"/><path class="cls-12" d="M475,854c-.71,10.58-3.7,20.89-3.14,31.66.36,6.8.52,13.59,1.86,20.29a17.09,17.09,0,0,1,.25,2.47c.11,3-.2,5.83-3.92,6.45s-5.63-1.27-6.47-4.66c-3.07-12.41-3.29-25-2.13-37.63.62-6.75,2.3-13.4,3.49-20.1C468.35,852.68,471.8,852.55,475,854Z" transform="translate(-0.89 -0.9)"/><path class="cls-4" d="M1573.08,419.09c-3-.91-5.13-3.21-7.51-5.08-1.33-7.41,1.89-12.94,7.29-17.53a41.34,41.34,0,0,1,9.27-5.85c6.14-2.87,12.69-5.11,17.21-12C1598.64,396.42,1589,413.63,1573.08,419.09Z" transform="translate(-0.89 -0.9)"/><path class="cls-13" d="M661,108.11c-3.39,10.63-7.47,20.91-15.74,28.85-6.33,6.06-13.6,10-22.75,9.14-2.32-.22-4.62-.47-6.43-2.17A435.9,435.9,0,0,1,661,108.11Z" transform="translate(-0.89 -0.9)"/><path class="cls-12" d="M543.07,865.45c-2.22,12.16-3,24.36-1.15,36.66.33,2.12,0,4.33.1,6.48.18,3.24-.8,5.78-4.32,6.14s-5.28-2-5.7-5.05c-.86-6.23-1.44-12.5-2-18.77-.79-9.18,1.38-18.17,1.92-27.26C535.89,862.8,539.41,864.53,543.07,865.45Z" transform="translate(-0.89 -0.9)"/><path class="cls-13" d="M1453.82,348.52,1453,348Z" transform="translate(-0.89 -0.9)"/><path class="cls-6" d="M83.07,282A127.94,127.94,0,0,0,62,306.82L49,298c2.8-5.46,5.83-10.82,8.35-16.4A66.13,66.13,0,0,0,63,258c3.18,2.28,4.65,5.9,6.7,9C73.49,272.65,79.12,276.55,83.07,282Z" transform="translate(-0.89 -0.9)"/><path class="cls-9" d="M281,194.06c.09-2.9,1.34-4.89,4.42-4.91s4.48,1.85,4.5,4.79-1.32,4.87-4.39,4.91S281.15,197,281,194.06Z" transform="translate(-0.89 -0.9)"/><path class="cls-9" d="M198.62,709.67c-.12,30.68-4.33,57.56-10,84.28a777.2,777.2,0,0,1-26,92.76c-4.78,13.73-11.84,26.46-18.66,39.23-8.7,16.3-17.86,32.36-27.84,47.93a721.27,721.27,0,0,1-46.69,65.38,186.68,186.68,0,0,1-16.67,18.54c-6.29,5.94-12.6,6.85-18.4,2.72-5.53-3.93-7.62-12.49-4.33-19.3,5.4-11.17,13.69-20.43,20.95-30.32,17.25-23.48,33.38-47.74,50.41-71.36,13.09-18.15,25.14-37,34.56-57.23a381.33,381.33,0,0,0,23.21-62.71c6.58-24.78,12.59-49.7,16.47-75.06,2.05-13.46,3.39-27,4.64-40.59,1.31-14.11-.25-28.29,1.76-42.35.5-3.47.94-7,5.15-7.4s5.57,3,6.52,6.3c2.87,10,3.46,20.32,4.23,30.57C198.41,698.34,197.87,705.7,198.62,709.67Z" transform="translate(-0.89 -0.9)"/><path class="cls-11" d="M199.75,546c3.81,5.71,4.28,12.43,5.39,18.88,2.13,12.37,3.88,24.8,5.78,37.21-4.85-2.18-7-7.22-11.27-10.23-12.42-8.81-25.45-5.51-31.24,8.52-3.93,9.56-5.64,19.78-8.87,29.55-.51,1.56-.62,3.31-2,4.48-12.32-11.33-15.06-31-6.43-46.38,5.67-10.1,13.69-17.91,23.33-24.22C183.08,558.14,191.93,552.79,199.75,546Z" transform="translate(-0.89 -0.9)"/><path class="cls-11" d="M301,788c20-.26,39.18,3.79,56.77,13.1,14.88,7.88,26.66,19.74,36,33.78A23.47,23.47,0,0,1,398,846c-7.38-.64-14.64,1.24-22,1-3.21-7.62-9.32-12.7-15.38-17.93-15.52-13.38-32.8-21-53.77-17.05A139.88,139.88,0,0,1,301,788Z" transform="translate(-0.89 -0.9)"/><path class="cls-11" d="M363,850l-21,7c-4.13.64-8.1,1.61-11,5-4.88-.26-8.41,3.34-12.8,4.53-1.71.46-3.25,1.53-5.12,1.49a184.41,184.41,0,0,0-5-48A65.81,65.81,0,0,1,342,826.24C352.23,831.13,360.3,838.27,363,850Z" transform="translate(-0.89 -0.9)"/><path class="cls-10" d="M363,850c-2.71-11.71-10.78-18.85-21-23.74A65.81,65.81,0,0,0,308,820a25,25,0,0,1-1.16-8c21-3.91,38.25,3.67,53.77,17.05,6.06,5.23,12.17,10.31,15.38,17.93C371.92,849,367.48,849.52,363,850Z" transform="translate(-0.89 -0.9)"/><path class="cls-12" d="M582.83,1043a32,32,0,0,1-9.77,9.13c-1.76-2.73-4.82-3.5-7.47-4.73C552,1041,540.27,1032.19,529.46,1022c-2.88-2.72-5.37-5.93-2.11-9.39s6.49-1.18,9.4,1.6a146.31,146.31,0,0,0,42.71,28A18.58,18.58,0,0,0,582.83,1043Z" transform="translate(-0.89 -0.9)"/><path class="cls-12" d="M400,846H412c-5.92,17.07-4.52,34.39-1.76,51.75.57,3.6.3,7.17-3.84,7.92-4.42.81-5.84-2.47-6.57-6.34-3.08-16.29-4.72-32.56-.19-48.89A25,25,0,0,0,400,846Z" transform="translate(-0.89 -0.9)"/><path class="cls-12" d="M331,862c2.89-3.38,6.86-4.35,11-5-.48,15.21,3.33,29.68,7.54,44.07,1.12,3.83,2.53,7.58,2.48,11.67a4.63,4.63,0,0,1-3.48,4.85c-2.52.82-4.15-.51-5.55-2.3a5.48,5.48,0,0,1-.92-1.76C336.84,896.68,331.62,879.83,331,862Z" transform="translate(-0.89 -0.9)"/><path class="cls-12" d="M624.11,985.05a32.91,32.91,0,0,1-6.88,11.43c-.5-2.25-2.42-2.52-4.18-3-11.24-2.76-21.38-8.1-31.57-13.33a10.14,10.14,0,0,1-2.43-1.71c-2.36-2.27-5.56-4.37-2.5-8.26,2.77-3.5,5.74-2.17,8.81-.35A123.55,123.55,0,0,0,624.11,985.05Z" transform="translate(-0.89 -0.9)"/><path class="cls-2" d="M1703,621c-2,0-3.65-.62-4.49-2.52-1.1-2.51-.21-4.66,1.8-6.19,5.16-3.92,10.26-8,15.69-11.48,12.84-8.3,24.41-18.55,38.47-25a44.2,44.2,0,0,1,7-2.6c2.61-.69,4.53.75,5.82,2.89,1.41,2.35.1,4.11-1.57,5.68a7.28,7.28,0,0,1-1.91,1.58c-19.66,8.43-35.3,23.08-53.18,34.25C1708.23,619.09,1706.1,621.16,1703,621Z" transform="translate(-0.89 -0.9)"/><path class="cls-6" d="M1750.68,527c13.4.61,26.4-2.36,39.51-4.38,3.48-.53,6.93-.91,10.35.17,1.39.43,3.36.51,3.71,2.06.4,1.79-1.69,2.26-2.85,3-8.5,5.33-13.26,12.81-13.5,23-9.6-.3-17.59-4.53-24.77-10.44C1758.42,536.45,1753.67,532.49,1750.68,527Z" transform="translate(-0.89 -0.9)"/><path class="cls-6" d="M1283.47,950c13-10.84,26.23-21.49,38.61-33.11a527,527,0,0,0,107-140.77c.92-1.75,2-3.4,3-5.1-.57,10.6-4.07,20.47-7.8,30.24-7.5,19.63-19.78,36.56-31,54-6.57,10.21-13.86,20-20.89,29.88-18.95,26.77-33.88,55.44-39.75,88-3.88,21.56-4.15,43.38-2.13,65.2.08.83.2,1.66.31,2.48.34,2.4.36,5.23-2,6.15-1.68.67-2.42-2.24-3.73-3.4-.86-.77-1.42-1.92-2.33-2.59-9.62-7.09-12.61-17.6-14.56-28.52-3.36-18.87-11.32-36.17-18.09-53.87C1288.75,955.12,1285.25,953.19,1283.47,950Z" transform="translate(-0.89 -0.9)"/><path class="cls-13" d="M1116,1035.9a563.63,563.63,0,0,1-82.39,17.58c-17.18,2.24-34.43,3.58-51.74,4.26,1-3.7,2-7.44,1.32-11.29-1.65-9,2.37-15.94,8.54-21.72,4.59-4.29,9.73-8.05,16.36-8.76a20.39,20.39,0,0,0,4.42,14.87c5.38,7,13.14,10.45,20.84,13.92a5.35,5.35,0,0,0,6.37-1.5,5.49,5.49,0,0,0,.9-6.49c-1.77-3.36-4-6.5-6-9.73-.27-6.08.77-12.36-2.84-17.92-1.16-1.77.31-2.34,1.47-2.94a65.06,65.06,0,0,0,22.92-19.56c1.27-1.75,2.47-1.74,4.2-.77,20.34,11.36,42.62,16.55,65.31,20.4,3.38.58,4.35,1.35,2,4.47C1121.92,1018.21,1119,1027.11,1116,1035.9Z" transform="translate(-0.89 -0.9)"/><path class="cls-6" d="M1215.14,994.24a595,595,0,0,0,50.94-31.62c10.05,13.31,14.55,29,19.24,44.65.32,1.06,1.07,2.36,0,3.25-.84.69-1.89-.08-2.78-.47-20.25-8.89-41.82-12.14-63.49-15C1217.71,994.88,1216.43,994.52,1215.14,994.24Z" transform="translate(-0.89 -0.9)"/><path class="cls-4" d="M744.19,949.06c-3.26-16.06-.57-31.74,3.13-47.34.67-2.79,2.32-4.89,5.46-5,3.48-.07,5.52,1.87,6.33,5.18-4.93,13.8-6,28.07-4.62,42.51.31,3.31-.15,5.65-3,7S746,951.8,744.19,949.06Z" transform="translate(-0.89 -0.9)"/><path class="cls-4" d="M857.08,876c-.65-3.17-.21-6.1,2.8-7.79,3.27-1.85,6.1-.25,8.56,1.92a56.9,56.9,0,0,1,12.86,16.27c4,7.63,3.27,15.18-.42,22.67-1.24,1.93-2.09,4.13-4,5.58-2.26,1.68-4.64,2-6.93.41s-2.14-3.92-1.24-6.27c.18-.46.42-.91.62-1.36,5-10.95,4.08-16.54-4.63-25.2C862.35,879.91,860.59,876.85,857.08,876Z" transform="translate(-0.89 -0.9)"/><path class="cls-4" d="M1034.67,1027c2,3.23,4.19,6.37,6,9.73a5.49,5.49,0,0,1-.9,6.49,5.35,5.35,0,0,1-6.37,1.5c-7.7-3.47-15.46-7-20.84-13.92a20.39,20.39,0,0,1-4.42-14.87c4.35-5.28,6.74-5.34,11.69-.72C1024.42,1019.58,1028.1,1025.15,1034.67,1027Z" transform="translate(-0.89 -0.9)"/><path class="cls-13" d="M1178.73,1012c-11.31,5.43-22.79,10.43-34.85,14,2-6.82,7.35-11,12.18-15.55.46-.44,1.58-.32,2.38-.25C1165.2,1010.75,1172,1011.39,1178.73,1012Z" transform="translate(-0.89 -0.9)"/><path class="cls-6" d="M1432.05,771.07a1.81,1.81,0,0,1,.8-1.88C1432.91,770,1433,770.73,1432.05,771.07Z" transform="translate(-0.89 -0.9)"/><path class="cls-13" d="M1144,1025.88l-1.34.89C1143.1,1026.4,1142.82,1025,1144,1025.88Z" transform="translate(-0.89 -0.9)"/><path class="cls-11" d="M86.78,357c6.38,2.3,8.76,8.75,13.31,13,4.09,3.8,7.49,8.37,11,12.73,11.13,13.63,19,29.39,28.89,43.88-14.52,12.72-29.18,25.28-44.91,36.5s-34.27,10.19-47.74-1.69c-11.85-10.44-16.73-34.91-7.8-50C52.07,390.14,68.6,372.94,86.78,357Z" transform="translate(-0.89 -0.9)"/><path class="cls-11" d="M153.67,451.86c1.66.28,2.43,1.52,3.22,2.84,15.26,25.67,29.79,51.71,40.09,79.86,1,2.78,2.3,5.55,1.93,8.66-2.63-3.69-4.21-7.93-5.84-12.08-1.42-3.62-2.87-4.16-6.1-1.83-9.59,6.91-19.45,13.45-29.05,20.36-14.45,10.4-32.31,9.53-45.7-2.46-16.94-15.17-18.73-42.57-2.9-59C122.62,474.42,138.24,463.19,153.67,451.86Z" transform="translate(-0.89 -0.9)"/><path class="cls-4" d="M98.14,673.6c.29-8.87-5.63-14.66-10.82-20.52-3-3.36-4.27-5.93-2.49-10.38,4.43-11.08,3.24-22-1.82-32.72-2.32-4.89-2-5.91,3.36-7.16,4.32-1,8.82-1.29,13.24-1.9C107,625.31,106.29,649.53,98.14,673.6Z" transform="translate(-0.89 -0.9)"/><path class="cls-3" d="M41.11,734.38c1.86-8.14-3-13.48-8-18.68s-5.3-6.13,0-11.23c6.48-6.25,13.29-12.05,23.3-11.55,4,.2,4.73,1.4,3.75,5.2A34.28,34.28,0,0,0,62.91,723C56.52,728.45,49,731.71,41.11,734.38Z" transform="translate(-0.89 -0.9)"/><path class="cls-4" d="M95.57,589.82c-6.2,1.12-12.53,1.81-18.15,5-2.18,1.23-3.65.49-5.25-1.1A93.51,93.51,0,0,0,55,580.23c-1.32-.81-4.26-1.39-3-3.71,1.14-2,3.17-3.87,6.24-2.61,6.41,2.63,13.1,3.36,20,3.18,3.66-.1,6.89-.74,9.72-3.09A62.43,62.43,0,0,1,95.57,589.82Z" transform="translate(-0.89 -0.9)"/><path class="cls-4" d="M82.86,566c-7.6,0-15.34.68-22.45-2.88C52.22,559,47.06,552.62,45.92,543.3c-.22-1.81-.57-3.59-.86-5.39A83.15,83.15,0,0,1,82.86,566Z" transform="translate(-0.89 -0.9)"/><path class="cls-4" d="M71.16,717.32c-.33-3-.68-5.9-1-8.85a19.63,19.63,0,0,1,4.29-14.72c3.55-4.69,6-10.14,11.51-13.09,4.08-2.19,8.11-4.47,12.15-6.72C93.35,691,84.66,705.67,71.16,717.32Z" transform="translate(-0.89 -0.9)"/><path class="cls-11" d="M128.64,656.89c-.26,2.88-1.75,4.72-4.71,4.77s-4.72-1.67-4.77-4.63,1.67-4.71,4.62-4.8S128.26,654,128.64,656.89Z" transform="translate(-0.89 -0.9)"/><path class="cls-11" d="M95,536.88c-.43,3.12-2,4.85-5,4.69a4.35,4.35,0,0,1-4.48-4.93c.14-2.91,1.92-4.63,4.9-4.49S94.76,534.25,95,536.88Z" transform="translate(-0.89 -0.9)"/><path class="cls-11" d="M59,511.36c-.35,2.86-1.9,4.61-4.86,4.58s-4.64-1.9-4.61-4.78a4.32,4.32,0,0,1,4.79-4.6C57.18,506.63,58.79,508.36,59,511.36Z" transform="translate(-0.89 -0.9)"/><path class="cls-11" d="M16.5,503.29c-.39,2.9-1.84,4.75-4.86,4.65S7,506.1,7,503.15s1.89-4.62,4.78-4.59S16.26,500.44,16.5,503.29Z" transform="translate(-0.89 -0.9)"/><path class="cls-11" d="M129.42,613.55c-.2,2.93-1.68,4.77-4.63,4.84s-4.75-1.53-4.8-4.54,1.61-4.7,4.55-4.82S129,610.7,129.42,613.55Z" transform="translate(-0.89 -0.9)"/><path class="cls-11" d="M22.67,763.38c-3.19-.17-5.11-1.59-5.24-4.53A4.28,4.28,0,0,1,21.91,754c2.94-.13,4.77,1.47,4.94,4.42S25.14,762.85,22.67,763.38Z" transform="translate(-0.89 -0.9)"/><path class="cls-11" d="M72.34,746.61c-2.88-.46-4.57-2.08-4.39-5s1.93-4.61,4.89-4.45,4.52,2.06,4.41,5S75.22,746.44,72.34,746.61Z" transform="translate(-0.89 -0.9)"/><path class="cls-11" d="M113.78,578.35c-3.15-.24-5-1.64-4.94-4.65s1.65-4.67,4.59-4.69,4.59,1.72,4.68,4.62S116.31,578,113.78,578.35Z" transform="translate(-0.89 -0.9)"/><path class="cls-11" d="M109.29,702.56c-.2,2.93-1.7,4.66-4.66,4.62s-4.66-1.67-4.65-4.61,1.72-4.61,4.63-4.63S109,699.72,109.29,702.56Z" transform="translate(-0.89 -0.9)"/><path class="cls-9" d="M1794,804.33c-.18,1.57.48,3.56-1.57,4.31-1.65.6-2.87-.49-3.8-1.73-9.05-12.08-18.88-23.59-27.11-36.26-2.32-3.58-3.73-7.76-5.53-11.68-.63-1.37-1.32-2.83.13-4.1s2.76-.72,4.21-.16c7.55,2.92,13.14,8.48,18.13,14.46,7.92,9.49,11.64,21.13,15.38,32.68A9.62,9.62,0,0,1,1794,804.33Z" transform="translate(-0.89 -0.9)"/><path class="cls-3" d="M76.9,628.42c0,.84,0,1.17,0,1.5-.94,11.59-2.12,12.37-12.71,8.15a39,39,0,0,0-28.7-.2c-3.5,1.29-4.66.37-4.46-3.08.84-13.83-3.11-26.61-8.57-39.06-1.19-2.7-1.4-4.48,2.5-5.07a35.58,35.58,0,0,0,11.61-4.43c2.31-1.27,4.73-1.75,7.12-.32,9.13,5.48,18.12,11.13,24.56,20A47.93,47.93,0,0,1,76.9,628.42Z" transform="translate(-0.89 -0.9)"/><path class="cls-3" d="M50,645.85c13.45,1.7,25.21,7.3,33.42,19.28,1.77,2.58,1.06,4-1.55,5.5-4.92,2.79-9.82,5.71-13.08,10.59-1,1.46-2.3,1.51-3.94,1.29-6.47-.89-13-1.08-19.29.85-2.34.72-3.72,0-5-2C35.81,674.1,30.2,667.55,23,662.58c-1.68-1.15-2.17-2.47-.86-4.18,1.12-1.44,2-3.47,3.45-4.18C33.17,650.59,40.7,646.53,50,645.85Z" transform="translate(-0.89 -0.9)"/><path class="cls-4" d="M860.05,173A135.48,135.48,0,0,0,899,168.3c5.72-1.52,10.84-4.17,16-6.92a13,13,0,0,0,6.88-8.73c.59-2.45,1.52-4.67,4.45-4.42s3.67,2.47,3.71,5c0,1.33,0,2.68,1,3.74a34.15,34.15,0,0,1,1.75,9.27c.68,13.08-6.76,21.81-19.78,23.6-13.43,1.85-26.46,1-39-4.66-2.84-1.28-6.06-1.71-9-2.77C860.3,180.77,858.53,177.21,860.05,173Z" transform="translate(-0.89 -0.9)"/><path class="cls-4" d="M1183.9,131c-16.31,13.93-31,28.85-30.9,52.43a22.79,22.79,0,0,0,.39,4c.38,2.08,3,4.62-.24,6-2.87,1.23-6.3,1.62-8.09-2.29a8.3,8.3,0,0,0-.85-4.34c-8.49-19.91-3.83-37.48,10-53,5.75-6.43,12.37-12.08,18.69-18a14.36,14.36,0,0,1,4.63-2.84c5.56-2.07,9.24,1,8.51,6.87C1185.61,123.61,1183.44,127.06,1183.9,131Z" transform="translate(-0.89 -0.9)"/><path class="cls-4" d="M934,28.27c.58,4.35-1,7.75-4.31,10.58-9.8,8.49-19.52,17.06-29.29,25.57A72.65,72.65,0,0,0,885.7,81.31c-1.63,2.67-3.27,4-6.2,3.88-3.22-8.33-.84-16,3.11-23.28,5-9.25,12.45-16.3,21.3-21.85a180.69,180.69,0,0,1,22.51-11.62C928.89,27.34,931.41,26.46,934,28.27Z" transform="translate(-0.89 -0.9)"/><path class="cls-6" d="M1467.49,389c3.7,1.06,5.3,4.38,7.23,7.15,11.07,15.89,16.16,33.83,17.35,52.95a128.27,128.27,0,0,1-4,40.1c-.62,2.4-.83,4.9-1.23,7.35-1.62-15.34-3-30.69-5.5-45.92A542.6,542.6,0,0,0,1467.49,389Z" transform="translate(-0.89 -0.9)"/><path class="cls-9" d="M1353.3,380.19c16.28-4.4,31.91-9.95,41.9-24.88a38.75,38.75,0,0,0,6.89-24c-.14-2.8-1.67-7.41,1.13-8.15,3-.81,3.59,4,5,6.46,3.08,5.15,6,10.35,10.41,14.57,1.08,1.05,2.17,2.11,2.33,3.73-1.35-.6-2.72-1.17-4.06-1.82-4.86-2.34-9.19-1.36-11.22,3.65-7.07,17.46-21.46,27.06-37,35.47-6.4,3.45-13.36,4.84-21.55,5.09Z" transform="translate(-0.89 -0.9)"/><path class="cls-6" d="M1184.66,59.08c21.35-1.11,40.48,4.21,56,19.64,4.56,4.53,9.13,9.21,9.4,16.28-.32,0-.72,0-1-.11C1228.37,81.59,1206.7,70,1184.66,59.08Z" transform="translate(-0.89 -0.9)"/><path class="cls-6" d="M696.92,84C699,77,704.41,72.9,710.2,69.58A42.44,42.44,0,0,1,734.08,64Z" transform="translate(-0.89 -0.9)"/><path class="cls-6" d="M695,85.37c.35-.88.63-1.86,2-1.44C696.68,84.87,695.82,85.07,695,85.37Z" transform="translate(-0.89 -0.9)"/><path class="cls-5" d="M826.22,904.33c-.12.28-.24.57-.35.85-.74-.66.18-.48.35-.71A.64.64,0,0,0,826.22,904.33Z" transform="translate(-0.89 -0.9)"/><path class="cls-6" d="M1250,95c.81-.07.92.5,1,1.1C1250.42,95.9,1250,95.63,1250,95Z" transform="translate(-0.89 -0.9)"/><path class="cls-14" d="M239.83,405.36c-.13,7.95-2.78,14-8.29,18.76-2.39,2.06-5.11,3-7.64.69-2.72-2.45-2.3-5.58,0-8,3.87-4,5.68-8.41,4.24-14.06-.79-3.09-.38-6.2,3.4-7.22s5.57,1.5,7,4.25A11.1,11.1,0,0,1,239.83,405.36Z" transform="translate(-0.89 -0.9)"/><path class="cls-14" d="M298,508a29.37,29.37,0,0,1-13.85,21.92c-2.44,1.55-5.2,1.73-7.14-.88-1.83-2.46-1.34-5,.72-7.22,2.26-2.42,5.05-4.35,6.64-7.35,1.25-2.35,2.67-4.65,2.58-7.43-.11-3.85.51-7.36,5.38-7.09C296.82,500.19,297.61,503.76,298,508Z" transform="translate(-0.89 -0.9)"/><path class="cls-14" d="M322.93,639.19c0,8.55-4.49,14.7-10.71,19.81a4.91,4.91,0,0,1-6.83-.19c-2.12-2-2-4.51-.57-6.81a34.45,34.45,0,0,1,3.51-4.17c2.44-2.86,4.08-6,3.75-9.93-.31-3.8-.29-7.88,5-7.88,4.83,0,5.6,3.82,5.87,7.68C323,638.2,322.93,638.69,322.93,639.19Z" transform="translate(-0.89 -0.9)"/></svg>