<svg xmlns="http://www.w3.org/2000/svg" xmlns:xlink="http://www.w3.org/1999/xlink" width="54.83mm" height="54.96mm" viewBox="0 0 155.43 155.78">
  <defs>
    <linearGradient id="a" data-name="Dégradé sans nom 37" x1="33.57" y1="103.21" x2="164.24" y2="27.76" gradientUnits="userSpaceOnUse">
      <stop offset="0" stop-color="#04743c"/>
      <stop offset="0.1" stop-color="#0a763c"/>
      <stop offset="0.23" stop-color="#1a7a3d"/>
      <stop offset="0.37" stop-color="#34813f"/>
      <stop offset="0.52" stop-color="#598b42"/>
      <stop offset="0.68" stop-color="#889845"/>
      <stop offset="0.85" stop-color="#c0a849"/>
      <stop offset="1" stop-color="#fab84d"/>
    </linearGradient>
    <linearGradient id="b" data-name="Dégradé sans nom 45" x1="28.97" y1="27.95" x2="108.02" y2="164.87" gradientUnits="userSpaceOnUse">
      <stop offset="0.06" stop-color="#10394d"/>
      <stop offset="0.61" stop-color="#226942"/>
      <stop offset="0.9" stop-color="#297e3e"/>
    </linearGradient>
    <linearGradient id="c" x1="0" y1="99.91" x2="108.8" y2="99.91" xlink:href="#b"/>
  </defs>
  <title>Fichier 2</title>
  <g>
    <path d="M138.34,0H17.1A17.1,17.1,0,0,0,0,17.1V43.91a1.43,1.43,0,0,0,.39.78c6.58,11.5,11,19.5,14,25.13A72.22,72.22,0,0,0,26,86.27C36.37,97.45,42,103.53,49.48,110.1c15.54,13.6,34.09,23.45,71.11,43.26l4.15,2.2,13.6-.13a17.09,17.09,0,0,0,17.09-17.09V17.1A17.09,17.09,0,0,0,138.34,0ZM54.53,83a8.42,8.42,0,0,1-8.42,8.42H35.62A8.42,8.42,0,0,1,27.2,83V72.54a8.42,8.42,0,0,1,8.42-8.42H46.11a8.42,8.42,0,0,1,8.42,8.42Zm.13-35.88a8.42,8.42,0,0,1-8.42,8.42H35.75a8.42,8.42,0,0,1-8.42-8.42V36.66a8.42,8.42,0,0,1,8.42-8.42H46.24a8.42,8.42,0,0,1,8.42,8.42Zm36.79,71.76A8.42,8.42,0,0,1,83,127.33H72.54a8.42,8.42,0,0,1-8.42-8.42V108.42A8.42,8.42,0,0,1,72.54,100H83a8.42,8.42,0,0,1,8.42,8.42Zm0-35.88A8.42,8.42,0,0,1,83,91.45H72.54A8.42,8.42,0,0,1,64.12,83V72.54a8.42,8.42,0,0,1,8.42-8.42H83a8.42,8.42,0,0,1,8.42,8.42Zm.13-35.88a8.42,8.42,0,0,1-8.42,8.42H72.67a8.42,8.42,0,0,1-8.42-8.42V36.66a8.42,8.42,0,0,1,8.42-8.42H83.16a8.42,8.42,0,0,1,8.42,8.42Zm36.26,71.76a8.41,8.41,0,0,1-8.41,8.42h-10.5a8.42,8.42,0,0,1-8.42-8.42V108.42a8.42,8.42,0,0,1,8.42-8.42h10.5a8.41,8.41,0,0,1,8.41,8.42Zm0-35.88a8.41,8.41,0,0,1-8.41,8.42h-10.5A8.42,8.42,0,0,1,100.51,83V72.54a8.42,8.42,0,0,1,8.42-8.42h10.5a8.41,8.41,0,0,1,8.41,8.42ZM128,47.15a8.42,8.42,0,0,1-8.42,8.42H109.06a8.42,8.42,0,0,1-8.42-8.42V36.66a8.42,8.42,0,0,1,8.42-8.42h10.49A8.42,8.42,0,0,1,128,36.66Z" fill="url(#a)"/>
    <path d="M124.66,154.64c0-.06,0-.38,0-.39s-.67-5.48-.83-6.82c-.25-2-2-16.31-2.23-24.52a16.93,16.93,0,0,0-.45-3.61,17.93,17.93,0,0,0-2.46-5.7,15.19,15.19,0,0,0-7.64-4.41l-2.09-.44-1-.21c-6.34-1.38-11.6-2.84-15.48-4,0,0-9.82-3-21.71-8.15-4.75-2-9.83-4.44-14.75-7.1-.42-.22-.83-.45-1.24-.68l-.67-.36-1.87-1.06-.18-.1-1.7-1-.66-.39L48.43,85l-.75-.45-1.1-.67-.79-.49-1.06-.66-.8-.51-1-.66L42.1,81l-1-.68-.78-.52-1-.69-.75-.52-1.08-.74-.7-.49-1.18-.82L35,76.14,33.2,74.88l-.08-.07-1.65-1.22-.59-.44-1.13-.86-.69-.53L28,71l-.72-.57-1-.77L25.62,69l-1-.78-.72-.59-1-.79-.72-.6-.95-.81-.69-.59-1-.85L19,63.46l-1.07-1L17.39,62,15.8,60.58l0,0c-.52-.47-1-.95-1.54-1.43l-.52-.49-1-1-.61-.6-.93-.91-.65-.63c-.29-.3-.59-.59-.89-.89l-.65-.66-.87-.88-.65-.67-.85-.89c-.22-.22-.43-.45-.64-.67s-.58-.61-.86-.92l-.62-.66-.88-1L3,47.66,2,46.59l-1.81-2A192.22,192.22,0,0,0,16.08,75a192,192,0,0,0,31.79,37.71S84,145.91,124.14,155.42a.45.45,0,0,0,.55-.47C124.68,154.78,124.66,154.64,124.66,154.64Z" fill="url(#b)"/>
    <path d="M108.8,155.69A180.87,180.87,0,0,1,58.16,126a188.06,188.06,0,0,1-35-38.86A213.1,213.1,0,0,1,4,53.54C2.28,49.72.94,46.44,0,44A162.17,162.17,0,0,0,25.29,124h0c1.92,2.92,13.27,17.54,14.51,18.91,3.46,3.85,12.42,12.82,21.11,12.82C77.85,155.69,106.93,155.89,108.8,155.69Z" fill="url(#c)"/>
  </g>
</svg>
